<svg width="60" height="60" viewBox="0 0 60 60" fill="none" xmlns="http://www.w3.org/2000/svg">
<g style="mix-blend-mode:difference">
<path d="M1.98935 34.1357C1.91018 34.4825 2.12739 34.6538 2.38317 34.8007C2.40394 34.8612 2.43792 34.9162 2.48265 34.9618L4.29141 40.7284C4.22848 41.1058 4.41727 41.426 4.51877 41.7687C4.58576 41.9278 4.66087 42.0828 4.73598 42.2379C4.53095 41.9584 4.30765 41.7279 3.86308 41.9584C3.83736 42.0232 3.8256 42.0927 3.82856 42.1624C3.52203 42.0645 3.53624 41.6076 3.10587 41.5647C2.98204 41.9217 3.19925 42.1603 3.38805 42.4092C4.19397 43.8493 4.76644 45.4363 5.92153 46.6602C6.3661 47.6067 7.11925 48.3329 7.69781 49.1835L7.9739 49.3874C8.04089 49.5159 8.10991 49.6424 8.1769 49.7709C8.40155 49.9667 8.62554 50.1639 8.84884 50.3625C8.84007 50.4016 8.82784 50.4398 8.8123 50.4767C9.87198 52.1881 11.4879 53.3141 13.051 54.487C13.5484 54.8603 14.0153 55.3539 14.7238 55.3539L15.1298 55.5946C15.3856 56.1393 16.0088 56.0515 16.4148 56.3432C16.5034 56.4702 16.6214 56.5736 16.7586 56.6447C16.8958 56.7157 17.0481 56.7523 17.2024 56.7512C17.5963 56.6961 17.7181 57.1021 18.0023 57.2285C18.727 57.4162 19.2629 58.0975 20.0851 58.0281L22.1009 58.6748C22.5833 59.0111 23.1414 59.2214 23.7249 59.2867H24.7542C25.2109 59.3622 25.5702 59.9007 26.1102 59.5784C26.1224 59.4993 26.1224 59.4188 26.1102 59.3397C26.1287 59.3494 26.145 59.3627 26.1582 59.3788C26.1715 59.395 26.1814 59.4136 26.1874 59.4336C26.3579 59.7049 26.636 59.7395 26.9162 59.7722C27.3546 59.8619 27.8053 59.7171 28.2519 59.6743H28.6234C28.8466 59.6908 29.0613 59.7676 29.2446 59.8966C30.148 59.9231 31.0676 60.2107 31.9263 59.6926L32.4379 59.6539C32.7951 59.4866 33.1971 59.6478 33.5564 59.505L34.1654 59.4397C34.4334 59.3459 34.7318 59.4173 34.9916 59.2826L35.3976 59.2173C36.9256 59.3125 38.442 58.8981 39.7115 58.0383L41.9445 57.1938C43.7183 56.8441 45.353 55.9846 46.6501 54.7195C47.2693 54.3809 48.0163 54.2422 48.4223 53.5752C48.4406 53.5242 48.4548 53.4732 48.469 53.4243C49.6221 53.1938 50.3123 52.3391 50.9863 51.4579L50.9579 51.3722C51.0979 51.4456 51.1568 51.3477 51.2096 51.2416L51.3172 51.0213C51.3688 51.0008 51.4241 50.991 51.4796 50.9928C52.3145 50.47 53.0237 49.7678 53.5563 48.9366L53.6923 48.545L53.6395 48.4818L53.7187 48.3716L54.2404 47.9126L54.6708 47.2008C54.748 47.1955 54.8205 47.1613 54.8738 47.1049C55.2047 46.9437 55.2433 46.546 55.495 46.3216L56.5222 44.8448C56.7583 44.5031 56.9551 44.1356 57.1089 43.7494C57.1035 43.7359 57.1009 43.7214 57.1014 43.7069C57.1019 43.6924 57.1055 43.6782 57.1118 43.6651C57.1181 43.652 57.127 43.6404 57.1381 43.6311C57.1491 43.6217 57.162 43.6147 57.1759 43.6107C57.1722 43.5573 57.1654 43.5041 57.1556 43.4516C58.7796 41.0303 59.2566 38.2582 59.5916 35.4493C59.7175 34.4049 59.752 33.3463 59.8271 32.2958C59.8927 32.2095 59.9405 32.1109 59.9676 32.0058C59.9948 31.9008 60.0009 31.7913 59.9854 31.6838C59.8484 31.0562 59.8484 30.4062 59.9854 29.7786C60.03 29.5054 59.9714 29.2253 59.821 28.9933C59.6838 26.3485 59.2528 23.7273 58.536 21.1787C58.4913 20.9747 58.4467 20.7708 58.404 20.5668C58.3918 20.4995 58.3817 20.4322 58.3695 20.3628C58.3727 20.2811 58.3539 20.2 58.3149 20.1281C58.276 20.0563 58.2184 19.9964 58.1482 19.9548C58.0325 19.9202 57.9432 19.8692 58.0325 19.7305C58.0986 19.4088 58.0768 19.0752 57.9696 18.765C57.8624 18.4547 57.6737 18.1794 57.4235 17.968C57.4307 17.8738 57.4124 17.7794 57.3707 17.6947C57.2806 17.6222 57.2096 17.5283 57.1643 17.4215C57.119 17.3148 57.1006 17.1984 57.1109 17.0828C57.2083 16.53 56.778 16.2281 56.5283 15.8405L56.0715 15.1143C56.0086 14.5493 55.8299 14.0557 55.2737 13.7925C55.2006 13.4539 55.1499 13.1031 54.8413 12.8767C54.7215 12.742 54.6789 12.5584 54.549 12.4299C54.4862 12.3682 54.4102 12.3217 54.3269 12.2938C54.2435 12.2659 54.155 12.2573 54.0679 12.2688C53.7228 11.5059 53.0265 11.0102 52.6002 10.3106L52.4317 10.2779L51.983 9.66597C51.9244 9.66831 51.8658 9.65931 51.8105 9.63945C51.8074 9.57966 51.8074 9.51974 51.8105 9.45995L50.3895 8.20954L48.3594 6.36146C48.2945 6.2819 48.2539 6.15747 48.1118 6.23703L47.9087 6.1126C47.655 5.70871 47.2307 5.55165 46.843 5.34767C46.8107 5.35566 46.7766 5.35184 46.7468 5.33689C46.7171 5.32194 46.6936 5.29684 46.6806 5.26607C45.9234 4.19313 44.7602 3.8382 43.5827 3.48735L42.1617 2.83256C41.6197 2.44704 41.1365 1.92484 40.3712 2.05743C40.3367 2.09618 40.3022 2.13084 40.2698 2.16347L40.2697 2.1635C39.8678 1.96659 39.4439 1.81867 39.007 1.7229C38.9331 1.65591 38.8479 1.60272 38.7553 1.56583C38.6882 1.54658 38.6166 1.5509 38.5523 1.57807C38.5264 1.54011 38.4941 1.50697 38.4569 1.48016L36.6299 0.996723C36.3619 0.935529 36.1285 0.707069 35.8179 0.80294L35.6149 0.776423C35.0891 0.45617 34.5389 0.213431 33.9035 0.280746C33.6446 0.222605 33.3733 0.267182 33.1463 0.405175C32.9555 0.390896 32.7627 0.405175 32.5698 0.405175V0.360299C32.4284 0.221625 32.243 0.137172 32.0461 0.121639C31.6847 0.129799 31.2949 0.0543252 30.9701 0.199153C30.6595 0.186914 30.3571 0.186914 30.0505 0.186914C29.8737 0.11673 29.6918 0.0601324 29.5065 0.0176084C29.3647 -0.00586948 29.22 -0.00586948 29.0781 0.0176084C28.7878 0.0645244 28.5036 0.139998 28.2174 0.201192H28.0367L27.8459 0.264427C27.7079 0.164476 27.6551 0.250148 27.6165 0.368458L26.6502 0.617316L26.6422 0.625857C26.3931 0.89221 26.1471 1.15528 26.7497 1.29454C27.3718 1.44582 28.015 1.48996 28.6518 1.42509L29.0112 1.44344C29.0542 1.49003 29.1034 1.53052 29.1573 1.56379C29.5187 1.72494 29.9287 1.65355 30.2901 1.81265C30.5682 1.88609 30.8544 1.92892 31.1305 2.01663C31.5467 2.09007 31.973 2.11863 32.379 2.22062C30.958 2.24509 29.5369 2.40012 28.1159 2.34709C28.0737 2.38674 28.0258 2.41975 27.9738 2.445L27.8317 2.39808L27.4257 2.41032C27.1638 2.32261 26.906 2.23898 26.6665 2.46336C26.6314 2.51502 26.5928 2.5641 26.5507 2.61022L26.2036 2.65102L25.7976 2.6041L25.2292 2.66326C25.1905 2.71432 25.1485 2.76271 25.1033 2.80809L24.5816 2.88356C24.2994 2.85092 24.0294 2.84072 24.0091 3.23645C24.4984 3.23645 24.9897 3.26705 25.4606 3.08958L26.4147 3.03043H29.2832L33.3818 3.43839L33.5848 3.46083L33.9299 3.50571C36.1488 4.14213 38.4041 4.65005 40.5438 5.54553C40.7062 5.72095 40.895 5.83926 41.1528 5.73319L41.7151 6.16767C42.0787 6.20462 42.4216 6.35514 42.6956 6.59808C42.9962 6.87741 43.3546 7.0864 43.7451 7.21002L44.2202 7.53232L45.5986 8.44004L46.8714 9.5089C47.0074 9.85363 47.4601 9.86791 47.6022 10.2086C47.8782 10.6429 48.285 10.9774 48.7634 11.1632H48.7898C48.8933 11.3876 49.1917 11.357 49.3338 11.5304C49.4089 11.612 49.4861 11.6936 49.5612 11.7772L49.5774 11.7527C49.5702 11.8734 49.5898 11.9942 49.6347 12.1064C49.6796 12.2186 49.7488 12.3194 49.8373 12.4014C49.8635 12.4237 49.8914 12.4442 49.9205 12.4626C49.8819 12.5931 49.9733 12.7155 50.0383 12.8379C50.2169 13.0194 50.3813 13.2255 50.6473 13.1969C50.6431 13.3452 50.6623 13.4932 50.7041 13.6355L50.1722 13.15C50.1621 13.0929 50.1621 13.0378 50.1621 12.9827V12.9827C49.8962 12.8603 49.7033 12.589 49.3724 12.6013L50.1479 13.4172C50.2859 13.6661 50.4463 13.8904 50.7569 13.8252C50.7837 13.8951 50.8149 13.9632 50.8503 14.0292C50.8989 14.1071 50.9539 14.1807 51.0147 14.2495L51.102 14.3535C51.1406 14.4024 51.1832 14.4453 51.2238 14.4902C51.2211 14.658 51.2765 14.8216 51.3805 14.953C51.4846 15.0843 51.6308 15.1752 51.7942 15.2102L52.0439 15.9609C52.1025 15.983 52.1621 16.002 52.2226 16.018C52.4398 16.3913 52.6205 16.8563 52.8884 17.1215C53.1564 17.3867 53.2254 17.3071 53.2254 17.1582C53.3544 17.3317 53.5397 17.4543 53.7492 17.505C53.7504 17.5422 53.7559 17.5792 53.7654 17.6152C53.7865 17.6666 53.8255 17.7086 53.875 17.7335V17.7987C53.8181 17.825 53.7736 17.8726 53.7512 17.9313C53.7321 17.9858 53.7218 18.0429 53.7207 18.1006L53.7025 18.1251C53.67 18.2822 53.5786 18.4515 53.8446 18.4862C53.8736 18.5259 53.9055 18.5634 53.94 18.5984C53.9725 18.629 54.007 18.6555 54.0415 18.684C53.6923 19.2715 54.2891 19.5652 54.4637 19.9916C54.4957 19.9983 54.5288 19.9972 54.5603 19.9883C54.5917 19.9794 54.6206 19.963 54.6444 19.9406C54.7547 20.1037 54.8434 20.2806 54.9083 20.4668C55.1505 20.9092 55.2186 21.4268 55.0991 21.9171C55.1844 22.7168 55.4381 23.4797 55.5904 24.265C55.6135 24.3584 55.644 24.4498 55.6818 24.5383C55.5112 24.9136 55.7406 25.2767 55.9274 25.6419C56.1324 25.4032 55.9842 25.1768 55.9152 24.9463C56.0739 25.2742 56.1769 25.6265 56.2197 25.9886C56.2328 26.1828 56.2634 26.3753 56.3111 26.5639C56.3354 26.6618 56.3598 26.7658 56.3821 26.8658C56.2502 26.7434 56.2969 26.5394 56.2664 26.3721C56.2161 26.3732 56.1668 26.3574 56.1263 26.3272C56.1791 26.8678 55.9274 27.4491 56.3111 27.9591L56.307 28.0366C56.2941 28.2807 56.2811 28.5279 56.2664 28.775V28.8056C55.9254 27.5267 55.9152 26.1845 55.5336 24.9157C55.3996 24.4669 55.3793 23.9345 54.8921 23.6775H54.9042C54.9222 23.606 54.9176 23.5307 54.8911 23.462C54.8645 23.3933 54.8173 23.3346 54.7561 23.294C54.6926 23.2645 54.6321 23.2289 54.5754 23.188C54.2587 22.387 53.9407 21.5867 53.6213 20.7871C53.628 20.6808 53.5932 20.5761 53.5241 20.4953C53.4551 20.4145 53.3574 20.364 53.2518 20.3546C53.1564 19.3123 52.4499 18.5494 51.981 17.6804C51.8893 17.3466 51.709 17.0441 51.4593 16.8053L51.4004 16.4341C51.0431 15.9772 50.7609 15.457 50.3022 15.0858C50.3128 15.0639 50.3223 15.0414 50.3306 15.0185C50.0707 13.97 49.1978 13.3927 48.534 12.6523C48.3686 12.4938 48.2221 12.3165 48.0975 12.124C47.7017 11.5365 47.1434 11.1285 46.5689 10.741C46.257 10.543 45.961 10.3207 45.6838 10.076C45.1215 9.8006 44.7622 9.08258 44.0009 9.22741C43.804 8.68278 43.3757 8.49715 42.8337 8.47879C42.811 8.49072 42.7893 8.50436 42.7687 8.51959C41.8483 7.89129 40.8453 7.39492 39.7886 7.0448C39.7703 7.01012 39.7541 6.9734 39.7358 6.93669C39.5921 6.97364 39.4416 6.97571 39.2969 6.94272C39.1522 6.90974 39.0173 6.84265 38.9035 6.74698C37.9372 6.29822 36.9526 5.91678 35.8585 5.96369C35.8544 6.20031 35.6412 6.19827 35.5032 6.28598C35.4948 6.21292 35.469 6.14297 35.4281 6.082C35.1723 5.83314 34.8434 6.09424 34.5734 5.95757L33.9644 5.94737C33.9093 5.90638 33.8475 5.87532 33.7817 5.85558C33.5173 5.75085 33.229 5.72259 32.9494 5.77399C32.8845 5.74941 32.8157 5.73697 32.7464 5.73727C32.5434 5.4415 32.1983 5.61284 31.9344 5.49861L31.7964 5.53941C31.7337 5.51256 31.6744 5.47832 31.6197 5.43742C31.5272 5.42827 31.4338 5.44209 31.3478 5.47765C31.2618 5.51322 31.1858 5.56944 31.1264 5.6414C31.0737 5.36398 30.7874 5.46393 30.625 5.36398H28.9502C28.5686 5.44354 28.187 5.51697 27.8114 5.34155C27.2897 4.95398 26.7781 5.46597 26.2605 5.36194C26.2166 5.3672 26.176 5.38792 26.1459 5.42041C26.1158 5.4529 26.0981 5.49506 26.096 5.53941C25.7692 5.47821 25.4464 5.44354 25.1744 5.72095C25.1445 5.70177 25.1103 5.69025 25.0749 5.68741C25.0395 5.68456 25.004 5.69048 24.9714 5.70463C24.3421 5.77399 23.6864 5.62712 23.0774 5.85354C22.9581 5.89171 22.8457 5.94887 22.7444 6.02285C22.1029 5.84334 21.569 6.23499 20.9905 6.37166C18.6965 6.91425 16.701 8.07695 14.8395 9.47423C14.5269 9.70881 13.9909 9.72921 13.9036 10.2473C13.4286 10.335 13.1992 10.898 12.6856 10.898C12.617 10.8872 12.5467 10.8956 12.4826 10.9225C10.3105 12.2586 8.54433 13.9741 7.45623 16.3097C7.49886 16.5483 7.51917 16.7788 7.2106 16.8686C6.90609 17.2765 6.18949 17.4336 6.27069 18.0925C6.24207 18.0895 6.21315 18.0927 6.18585 18.1019C6.15855 18.111 6.1335 18.1259 6.11235 18.1455C5.3653 18.9186 4.43757 19.4979 3.81029 20.3893C3.61744 20.989 3.25812 21.55 3.31496 22.2252C3.31535 22.6494 3.21882 23.0682 3.03279 23.4491C2.90896 23.9774 2.42581 24.4159 2.63896 25.0279C2.68919 25.1131 2.7268 25.2051 2.75061 25.3012L2.6755 25.3379C2.45829 25.5786 2.54558 25.8458 2.61663 26.111L2.62578 26.1703C2.64502 26.2949 2.66407 26.4182 2.68159 26.5414C2.66264 27.1575 2.64302 27.7728 2.62272 28.3875C2.64788 28.4483 2.66824 28.5111 2.68362 28.5751V28.9443H2.63287C2.58248 29.0082 2.55505 29.0872 2.55505 29.1687C2.55505 29.2502 2.58248 29.3293 2.63287 29.3931L2.84602 30.0173C2.91363 30.0214 2.98142 30.0214 3.04903 30.0173C3.23376 29.7766 3.13632 29.5032 3.13632 29.2421C3.10771 29.1809 3.07083 29.1239 3.0267 29.0728C3.04696 28.8407 3.0652 28.6086 3.08344 28.3765L3.08354 28.3752L3.07669 28.3278C3.0587 28.2032 3.04088 28.0799 3.02467 27.955C3.03482 27.751 3.03482 27.5471 3.03482 27.3431C3.04948 27.2363 3.06248 27.1278 3.07533 27.0206L3.07948 26.9861C3.37383 25.393 4.30765 24.1426 5.24553 22.8922C5.27598 22.8514 5.18259 22.7188 5.14605 22.629C5.33281 22.3292 5.42823 21.9824 5.63123 21.6866L5.65356 21.654C5.67282 21.7063 5.70023 21.7552 5.73477 21.7988V21.7621C6.41077 21.4031 6.46558 21.142 5.94792 20.7218L6.75993 18.7554L6.90609 18.733C7.1091 19.0267 6.60361 19.3103 6.92233 19.6387C7.2309 19.5163 7.27353 19.2144 7.38519 18.9676C7.67173 18.7292 7.86221 18.3942 7.92111 18.0252C8.3769 17.583 8.7466 17.0594 9.01124 16.481L9.18786 16.277C9.2517 16.2664 9.31384 16.2472 9.37259 16.2199C9.57762 16.1812 9.67912 16.069 9.64259 15.8528L11.1184 14.0169L11.1976 14.0006L11.2199 13.9251C12.0299 14.0924 12.2593 13.2826 12.7039 12.9215C13.1423 12.5572 13.5528 12.1604 13.932 11.7344L15.1196 11.0898C15.5601 10.947 16.0027 10.8144 16.4391 10.6573C16.8208 10.5207 16.7599 10.3024 16.5183 10.0678C16.8655 9.68841 17.2227 9.33348 17.7972 9.45587C18.5483 9.61701 18.5017 8.48287 19.2913 8.56039C19.6669 8.59914 20.0729 8.21974 20.4789 8.02799C20.7814 7.75058 21.1935 7.98924 21.5183 7.80973C21.6155 7.76766 21.7151 7.73156 21.8167 7.70162C21.7758 7.73457 21.742 7.77551 21.7172 7.82197C21.7944 8.00148 21.971 8.00147 22.1232 8.04635C22.5292 7.98312 22.9535 7.98924 23.1383 7.52416C23.0449 7.46575 22.9392 7.43012 22.8297 7.42013C22.9371 7.36154 23.0391 7.29326 23.1342 7.21614V7.01216L24.4821 6.74086C24.5796 6.35738 25.0181 6.32066 25.2028 6.02693C25.216 5.99636 25.2249 5.96409 25.2292 5.93105C25.3104 5.96573 25.3774 6.01265 25.3551 6.13504C25.3191 6.17297 25.299 6.22337 25.299 6.27578C25.299 6.3282 25.3191 6.3786 25.3551 6.41653C25.688 6.63479 26.0351 6.59196 26.3863 6.48181C26.5153 6.45098 26.6476 6.43658 26.7801 6.43897C26.7172 6.45656 26.6581 6.4856 26.6056 6.52464C26.5092 6.56255 26.4229 6.62246 26.3535 6.69963C26.284 6.77681 26.2334 6.86913 26.2056 6.96932L27.2511 6.97952L27.1516 7.12027C27.1081 7.18605 27.0681 7.25414 27.0319 7.32425C26.8535 7.30896 26.6743 7.30896 26.4959 7.32425C26.3319 7.33941 26.176 7.40252 26.0473 7.5058C25.8565 7.94844 26.2341 7.88928 26.4533 7.9668C26.5176 7.96714 26.5804 7.98627 26.634 8.02187H27.6612C28.1281 7.98924 28.6072 7.516 29.0822 8.02187C29.6932 8.51347 30.4098 8.24013 31.0798 8.30949C31.3599 8.29317 31.6482 8.29725 31.8735 8.10551C31.9525 8.21553 32.0552 8.30618 32.1739 8.37068C32.7241 8.53795 33.2884 8.66442 33.8244 8.8684C34.1877 8.91595 34.5543 8.93504 34.9206 8.92552C35.8869 8.92756 36.4797 9.8414 37.3891 9.9903C37.1983 10.0535 37.0887 10.2718 36.9303 10.3983V10.3717C36.4796 9.2886 35.4301 9.52114 34.5917 9.2886C34.5009 9.25486 34.408 9.22692 34.3136 9.20497C34.1286 9.16023 33.9394 9.13561 33.7493 9.13154C33.6559 9.14444 33.568 9.1833 33.4955 9.24373C33.4143 9.43751 33.1971 9.62721 33.4772 9.8312L36.2462 10.7226L36.6522 10.7002C37.3627 11.0082 38.0976 11.2774 38.7837 11.6385C39.1837 11.8486 39.4049 11.4386 39.7318 11.4998L41.1406 12.1668C40.8138 12.9195 41.5446 13.0908 41.8491 13.4988C42.0825 13.819 42.8276 13.7109 42.6022 14.4024C41.9567 14.3678 42.3282 14.737 42.3789 14.9797C42.1252 15.0797 41.9912 14.8349 41.7882 14.7757C41.5344 14.4983 41.2441 14.3025 40.8381 14.4779C40.9132 14.9206 41.3294 14.9736 41.5892 15.1878C41.8186 15.5957 42.1983 15.6488 42.6043 15.5957L43.0245 16.0037C43.0685 16.063 43.1329 16.1037 43.2052 16.1179C43.2791 16.12 43.3527 16.1302 43.4244 16.1485C43.5198 16.226 43.5381 16.3301 43.5827 16.43L43.8446 16.683L43.9725 16.6422H43.9928L44.1552 16.6768C44.1388 16.7246 44.1326 16.7754 44.1369 16.8257C44.1468 16.9131 44.1838 16.9952 44.2425 17.0603C44.3063 17.1321 44.3741 17.2002 44.4455 17.2643C44.4881 17.3194 44.5308 17.3357 44.5754 17.3194C44.5773 17.3707 44.5862 17.4215 44.6018 17.4703C44.6607 18.2251 45.6189 18.3679 45.7143 19.1022C45.7062 19.3327 45.8544 19.4428 46.0269 19.5367L46.2888 19.9446C46.5852 20.2628 46.7435 20.6994 47.1008 20.9768C47.7788 21.6683 48.0163 22.5801 48.333 23.4531C48.4569 23.7979 48.6132 24.1324 48.7532 24.473C48.8263 24.6872 48.9014 24.8912 48.9745 25.0952C49.0009 26.8474 49.6972 28.4915 49.7865 30.2355C49.7784 31.1249 49.7764 32.0061 49.7561 32.8873L49.756 32.8888C49.7459 33.2391 49.7363 33.5709 50.1093 33.7563C50.2413 34.4478 49.951 35.1087 49.9327 35.7961V35.9267C49.9454 35.9881 49.9673 36.0472 49.9977 36.1021L49.9489 36.8242C49.9411 36.8433 49.9316 36.8618 49.9205 36.8792C49.8662 36.9319 49.8209 36.9933 49.7865 37.0608C49.9591 37.9379 49.1105 38.4744 49.0517 39.274C48.3817 40.143 48.333 41.2873 47.724 42.1828C47.2855 42.9865 46.4593 43.5943 46.4593 44.6306L43.3818 47.7209C40.6392 50.2605 37.2551 51.6027 33.8041 52.7695C32.9535 53.055 31.9811 52.9265 31.1264 53.31C29.8272 53.7833 28.5544 53.1387 27.2694 53.2509C27.2503 53.1989 27.2236 53.1501 27.1902 53.106C27.1415 53.0102 27.0867 53.0061 27.0217 53.0918C22.7323 52.8103 18.9401 51.2192 15.3328 48.9183C13.8955 48.0004 12.9191 46.6296 11.5143 45.7341C11.1042 45.473 10.8971 45.0243 10.6434 44.6265C10.1927 43.7025 9.22237 43.1945 8.78997 42.244C7.88457 40.2654 6.92031 38.3132 6.29911 36.2163C6.10626 35.5962 5.92559 34.9679 5.72259 34.356C5.7392 34.2699 5.73209 34.1809 5.70204 34.0986C5.67199 34.0163 5.62012 33.9437 5.55206 33.8889V33.5299C5.57172 33.4362 5.55546 33.3386 5.50652 33.2565C5.45758 33.1744 5.37959 33.114 5.28815 33.0872C5.2841 32.9791 5.27394 32.8792 5.27394 32.7751C5.15823 32.7282 5.00395 32.4304 4.93493 32.7282C4.85576 33.0587 4.81922 33.4421 5.08921 33.7481L4.90042 33.9868C4.80128 33.8946 4.72517 33.7803 4.67825 33.6531C4.63134 33.5258 4.61496 33.3893 4.63043 33.2545C4.64142 33.1993 4.64142 33.1424 4.63043 33.0872C4.67297 32.8237 4.63251 32.5534 4.51471 32.3141C5.23741 31.9388 4.96538 31.5839 4.49441 31.231C4.5208 30.1519 3.83059 30.6252 3.32917 30.6884C3.11602 31.0984 2.60039 31.3309 2.63693 31.8858C2.48536 32.3454 2.3419 32.8057 2.20657 33.2667C2.00559 33.5441 2.02183 33.846 2.0401 34.1561L1.98935 34.1357Z" fill="#FCF8EE"/>
<path d="M0.62189 31.4655L0.536626 30.6495C0.473073 30.2618 0.464188 29.8669 0.510234 29.4766C0.522083 29.4517 0.539585 29.4298 0.561338 29.4128C0.583092 29.3958 0.608496 29.3842 0.63552 29.3789C0.662543 29.3735 0.690438 29.3746 0.716975 29.382C0.743512 29.3894 0.767958 29.403 0.788356 29.4216L1.03805 29.8295C1.08555 29.93 1.10745 30.0408 1.10178 30.1519C1.09611 30.2629 1.06305 30.3709 1.00557 30.4659C0.688879 30.7128 1.04617 31.2064 0.62189 31.4655Z" fill="#FCF8EE"/>
<path d="M0.591608 34.9779C0.654538 34.9004 0.717468 34.9024 0.780399 34.9779L1.22498 36.4935C0.997229 36.3186 0.819599 36.0862 0.71014 35.82C0.60068 35.5538 0.563287 35.2633 0.601755 34.9779H0.591608Z" fill="#FCF8EE"/>
<path d="M2.0524 21.3979L2.42592 21.1939C2.76088 21.4897 2.32443 21.7059 2.34676 21.969C2.14375 22.02 2.24728 22.4484 1.95902 22.3219C1.75602 22.2301 1.94887 22.0404 1.97932 21.8936C2.00977 21.7467 2.02804 21.5652 2.0524 21.3979Z" fill="#FCF8EE"/>
<path d="M1.35249 37.3667C1.60422 37.2137 1.51489 37.7053 1.66512 37.8521C1.72714 37.904 1.76886 37.9763 1.78286 38.0561C1.78286 38.1846 1.80113 38.3152 1.81128 38.4437L1.45196 38.2397C1.48038 37.9378 0.983026 37.591 1.35249 37.3667Z" fill="#FCF8EE"/>
<path d="M0.0001508 32.6995C0.0671422 32.6056 0.13007 32.6016 0.193001 32.6995L0.566528 33.7194L0.377736 33.9234L0.13616 33.7357C0.259993 33.3685 -0.00796938 33.0524 0.0001508 32.6995Z" fill="#FCF8EE"/>
<path d="M2.39392 39.8333C1.91077 39.5885 1.83566 39.3968 2.0204 38.8868C2.14355 39.2064 2.26806 39.5219 2.39392 39.8333Z" fill="#FCF8EE"/>
<path d="M33.7739 11.4668C34.0744 11.5892 34.4986 11.373 34.6874 11.8034C34.7037 12.1338 34.4682 11.8442 34.387 11.9278H33.7678C33.5283 12.04 33.3415 12.0461 33.3253 11.7055C33.3923 11.4668 33.6075 11.5219 33.7739 11.4668Z" fill="#FCF8EE"/>
<path d="M27.3023 11.3604C27.6373 10.8811 28.1427 11.44 28.5894 11.4175C28.2909 11.5379 28.0006 11.5297 27.7205 11.6909C27.5297 11.801 27.0161 11.7663 27.3023 11.3604Z" fill="#FCF8EE"/>
<path d="M26.0049 7.18354C26.0963 7.5915 25.6761 7.4222 25.5604 7.5915L25.3574 7.61802L24.9717 7.56703C24.7686 7.59966 24.4885 7.72613 24.4256 7.40996C24.385 7.20598 24.6022 7.18354 24.7707 7.20598L24.7483 7.17334L26.0049 7.18354Z" fill="#FCF8EE"/>
<path d="M40.5135 14.445C40.1664 14.3288 39.8619 14.3104 39.667 13.7291C40.0466 14.0248 40.3978 13.9698 40.5135 14.445Z" fill="#FCF8EE"/>
<path d="M23.6213 9.55784C23.5012 9.64821 23.3552 9.69706 23.2052 9.69706C23.0551 9.69706 22.9091 9.64821 22.789 9.55784C22.911 9.47191 23.0563 9.42581 23.2052 9.42581C23.3541 9.42581 23.4994 9.47191 23.6213 9.55784Z" fill="#FCF8EE"/>
<path d="M31.769 4.28036L32.514 4.3436L32.311 4.54758L31.6168 4.49046C31.5403 4.54464 31.4541 4.58343 31.363 4.60469C31.2734 4.61406 31.1834 4.59091 31.1093 4.53942C30.5006 4.44479 29.8782 4.50152 29.2964 4.70465C29.0752 4.5231 28.7646 4.70464 28.5311 4.5639L28.4418 4.59042C28.1042 4.61794 27.7653 4.62611 27.4268 4.61489H27.4105C27.3923 4.63733 27.3699 4.65569 27.3517 4.68017L26.6046 4.7536L26.4666 4.71484C26.4024 4.74099 26.3412 4.77381 26.2839 4.81276C25.9618 4.84076 25.6376 4.83186 25.3176 4.78624C25.2857 4.78484 25.2549 4.7739 25.2292 4.75482C25.2035 4.73575 25.1841 4.7094 25.1734 4.67917C25.1627 4.64893 25.1613 4.61618 25.1692 4.5851C25.1772 4.55403 25.1942 4.52605 25.2181 4.50474C25.3115 4.39255 25.4495 4.42723 25.5733 4.46191L25.7763 4.4823C26.089 4.17633 26.5153 4.24365 26.8888 4.13349L27.8328 4.07638C28.657 3.93155 29.4791 3.71329 30.3054 4.06618L30.279 4.11922C30.7844 4.10698 31.2899 4.07638 31.769 4.28036Z" fill="#FCF8EE"/>
<path d="M21.876 3.65249C19.988 3.65249 18.4452 4.69688 16.7826 5.37206C16.2223 5.65967 15.8224 6.2961 15.0693 6.15535L15.3393 5.74738C15.4324 5.72057 15.5187 5.67414 15.5926 5.61118C15.6664 5.54822 15.7261 5.47019 15.7676 5.38226C15.9706 5.05792 16.1858 4.72135 16.6263 4.80091C16.6714 4.64927 16.7562 4.51259 16.8719 4.40518C17.2 4.09725 17.6309 3.92403 18.0798 3.9197L19.4338 3.44035C19.5418 3.46064 19.6529 3.45806 19.7599 3.43277C19.8668 3.40748 19.9674 3.36004 20.055 3.29348C20.3108 3.07522 20.5849 3.12417 20.867 3.23432L21.273 3.29348C21.287 3.31629 21.3064 3.33529 21.3294 3.34881C21.3524 3.36233 21.3784 3.36994 21.405 3.37099L21.273 3.29348L22.7205 3.26084C22.5438 3.62801 22.2069 3.63209 21.876 3.65249Z" fill="#FCF8EE"/>
<path d="M12.2272 8.2237C12.3044 7.72394 12.7185 7.65255 13.0961 7.53424C12.9722 7.97484 12.6515 8.15639 12.2272 8.2237Z" fill="#FCF8EE"/>
<path d="M34.6284 4.68924C35.0162 4.74024 35.4404 4.677 35.7429 5.04009C35.2577 5.23387 34.8335 5.01357 34.399 4.89934L33.9118 4.84631C33.9382 4.76471 33.9402 4.65252 33.9971 4.61173C34.2224 4.43426 34.4295 4.55053 34.6284 4.68924Z" fill="#FCF8EE"/>
<path d="M11.6702 8.86205C11.6643 8.91901 11.652 8.97511 11.6337 9.02932C11.6296 9.11554 11.6074 9.19991 11.5686 9.2769C11.5297 9.35389 11.4751 9.42176 11.4083 9.47604C9.73729 10.8892 8.24674 12.5048 6.97068 14.2859C6.915 14.3931 6.82899 14.4813 6.72349 14.5393C6.618 14.5974 6.49775 14.6228 6.37791 14.6123C6.39379 14.6262 6.40872 14.6412 6.42257 14.6572C6.52813 14.9978 6.33325 15.2487 6.15663 15.4976C5.29184 16.7215 4.60975 18.0657 3.84849 19.3569C3.61258 19.6718 3.41558 20.0143 3.2618 20.3769C3.0588 20.7053 2.99587 21.2621 2.37468 20.9684C2.32181 20.8735 2.29733 20.7653 2.30417 20.6567C2.31101 20.5482 2.34889 20.4439 2.41325 20.3565C2.77256 20.0423 2.2549 19.6894 2.45588 19.3671C2.45736 19.156 2.50965 18.9483 2.60827 18.7618C2.70689 18.5754 2.84892 18.4156 3.02226 18.2962C3.10474 18.2372 3.17194 18.1592 3.21821 18.0687C3.26448 17.9782 3.28848 17.8778 3.28819 17.7761C3.37346 17.0397 3.85458 16.5522 4.3296 16.0484C4.50419 15.9953 4.51231 15.8444 4.51434 15.7057C4.67268 15.3283 4.67674 14.8489 5.18628 14.7143C5.22665 14.7205 5.26771 14.7205 5.30808 14.7143C5.34259 13.776 6.12009 13.4129 6.73925 12.9356C6.97068 12.6724 7.08233 12.3073 7.42337 12.138L7.62638 11.934C7.61623 11.679 7.80908 11.6015 7.98976 11.5159C8.25647 10.9777 8.62721 10.4983 9.08032 10.1057C9.53343 9.71313 10.0598 9.41516 10.6288 9.22922C10.8318 8.91713 10.9536 8.48673 11.4408 8.50712C11.587 8.28274 11.8265 8.2807 12.0722 8.30314C12.1209 8.63155 11.8732 8.73558 11.6702 8.86205Z" fill="#FCF8EE"/>
<path d="M32.3125 9.04579C32.3428 9.10337 32.3514 9.16998 32.3368 9.23345L31.1919 9.20285C31.1615 9.07434 31.131 8.94788 31.1026 8.81937C31.4883 8.99275 31.9714 8.67862 32.3125 9.04579Z" fill="#FCF8EE"/>
<path d="M29.4826 9.01679C29.1274 8.91684 28.9 8.48236 28.4554 8.62311C28.9995 8.22942 29.5476 8.44768 30.0957 8.62311C30.4266 8.71286 30.8082 8.56599 31.1107 8.82709C30.6093 9.29829 30.0287 8.9964 29.4826 9.01679Z" fill="#FCF8EE"/>
<circle cx="29.9996" cy="30" r="24" fill="#FCF8EE"/>
</g>
</svg>
