<svg width="100" height="100" viewBox="0 0 100 100" fill="none" xmlns="http://www.w3.org/2000/svg">
<g style="mix-blend-mode:difference">
<path d="M43.1072 3.31566C42.5293 3.18371 42.2437 3.54573 41.9989 3.97204C41.8981 4.00663 41.8063 4.06328 41.7304 4.13782L32.1194 7.15242C31.4905 7.04754 30.9567 7.36219 30.3856 7.53136C30.1204 7.64301 29.862 7.76819 29.6036 7.89338C30.0694 7.55166 30.4535 7.17949 30.0694 6.43853C29.9614 6.39567 29.8455 6.37606 29.7294 6.38101C29.8926 5.87012 30.6541 5.8938 30.7255 5.17653C30.1306 4.97014 29.7328 5.33216 29.318 5.64682C26.9179 6.99003 24.2729 7.94413 22.2331 9.86928C20.6556 10.6102 19.4453 11.8655 18.0276 12.8297L17.6877 13.2899C17.4735 13.4015 17.2627 13.5166 17.0485 13.6282C16.7222 14.0027 16.3935 14.376 16.0626 14.7481C15.9975 14.7335 15.9337 14.7131 15.8722 14.6872C13.0199 16.4534 11.1432 19.1465 9.18841 21.7518C8.56626 22.5807 7.74354 23.3589 7.74354 24.5397L7.34237 25.2163C6.43466 25.6426 6.58084 26.6813 6.09468 27.358C5.88311 27.5058 5.71072 27.7024 5.59229 27.9311C5.47386 28.1597 5.41294 28.4135 5.41474 28.6708C5.50653 29.3272 4.83 29.5302 4.61921 30.0038C4.30644 31.2117 3.17094 32.1049 3.28653 33.4752L2.20883 36.8349C1.64823 37.6388 1.29769 38.5691 1.18891 39.5416L1.18891 41.257C1.06312 42.0182 0.165606 42.6171 0.702761 43.5171C0.834559 43.5374 0.968714 43.5374 1.10051 43.5171C1.08435 43.5478 1.0622 43.575 1.03535 43.5971C1.00849 43.6191 0.97748 43.6357 0.944132 43.6457C0.491969 43.9299 0.434176 44.3934 0.379778 44.8603C0.230196 45.5911 0.471575 46.3422 0.542971 47.0866L0.542971 47.7057C0.515406 48.0778 0.387377 48.4355 0.172404 48.741C0.128206 50.2467 -0.351148 51.7793 0.512377 53.2105L0.576967 54.0631C0.855745 54.6586 0.587168 55.3285 0.825144 55.9274L0.933939 56.9424C1.09033 57.389 0.971331 57.8863 1.19571 58.3194L1.3045 58.9961C1.14584 61.5427 1.83661 64.0701 3.26953 66.1858L4.677 69.9075C5.25991 72.8639 6.69248 75.5883 8.80085 77.7502C9.3652 78.7822 9.59637 80.0272 10.7081 80.7039C10.7823 80.7305 10.8566 80.752 10.9286 80.7728L10.9596 80.7817C11.3438 82.7035 12.7683 83.8539 14.237 84.9771L14.3798 84.9298C14.2574 85.1632 14.4205 85.2613 14.5973 85.3493L14.9645 85.5286C14.9988 85.6147 15.015 85.7068 15.0121 85.7993C15.8835 87.1908 17.0538 88.3729 18.439 89.2605L19.0917 89.4872L19.1971 89.3992L19.3807 89.5312L20.1456 90.4007L21.3321 91.118C21.3409 91.2467 21.3979 91.3675 21.4919 91.4563C21.7605 92.0078 22.4234 92.0721 22.7974 92.4916L25.2588 94.2036C25.8283 94.5971 26.4407 94.9252 27.0844 95.1814C27.1069 95.1724 27.131 95.1682 27.1552 95.1691C27.1794 95.1699 27.2031 95.1758 27.2249 95.1863C27.2467 95.1968 27.266 95.2117 27.2816 95.2301C27.2972 95.2485 27.3088 95.27 27.3156 95.2931C27.4046 95.287 27.4932 95.2757 27.5808 95.2593C31.6162 97.966 36.2364 98.7611 40.9178 99.3193C42.6585 99.5291 44.4229 99.5866 46.1738 99.7118C46.3176 99.8211 46.4819 99.9008 46.657 99.9461C46.8321 99.9914 47.0146 100.001 47.1937 99.9757C48.2397 99.7473 49.323 99.7473 50.369 99.9757C50.8244 100.05 51.2912 99.9523 51.6779 99.7017C56.0859 99.473 60.4545 98.7546 64.7021 97.56L64.7024 97.5599C65.0423 97.4855 65.3822 97.4111 65.7221 97.34C65.8342 97.3197 65.9464 97.3028 66.062 97.2825C66.1983 97.2879 66.3334 97.2565 66.4531 97.1915C66.5729 97.1266 66.6727 97.0306 66.742 96.9137C66.7998 96.7209 66.8848 96.572 67.1159 96.7209C67.652 96.8309 68.208 96.7947 68.7251 96.616C69.2422 96.4373 69.7011 96.1229 70.0533 95.7059C70.2103 95.7178 70.3677 95.6874 70.5088 95.6179C70.6298 95.4676 70.7862 95.3494 70.9641 95.2738C71.1421 95.1983 71.336 95.1677 71.5287 95.1848C72.4501 95.3472 72.9532 94.63 73.5992 94.2138L74.8095 93.4525C75.7512 93.3476 76.5739 93.0499 77.0125 92.1229C77.5768 92.0011 78.1616 91.9165 78.5389 91.4022C78.7633 91.2026 79.0693 91.1315 79.2835 90.915C79.3863 90.8103 79.4639 90.6837 79.5104 90.5448C79.5569 90.4059 79.5711 90.2583 79.552 90.1131C80.8235 89.538 81.6497 88.3775 82.8158 87.6669L82.8702 87.3861L83.8901 86.6384C83.8862 86.5406 83.9012 86.443 83.9343 86.3508C84.0339 86.3457 84.1338 86.3457 84.2334 86.3508L86.3175 83.9824L89.3976 80.599C89.5302 80.4908 89.7376 80.4231 89.605 80.1863L89.8123 79.8479C90.4855 79.425 90.7473 78.7179 91.0872 78.0716C91.0739 78.0178 91.0803 77.961 91.1052 77.9114C91.1301 77.8618 91.1719 77.8227 91.2232 77.801C93.0115 76.539 93.603 74.6003 94.1878 72.6379L95.2791 70.2696C95.9216 69.3662 96.7919 68.5609 96.571 67.2854C96.5064 67.2279 96.4486 67.1704 96.3942 67.1162C96.7224 66.4464 96.9689 65.7399 97.1285 65.0118C97.2402 64.8885 97.3288 64.7465 97.3903 64.5922C97.4224 64.4804 97.4152 64.3611 97.3699 64.2539C97.4332 64.2107 97.4884 64.1569 97.5331 64.0949L98.3388 61.0498C98.4408 60.6032 98.8216 60.2141 98.6618 59.6965L98.706 59.3581C99.2397 58.4818 99.6443 57.5649 99.5321 56.5059C99.629 56.0744 99.5547 55.6223 99.3247 55.2439C99.3485 54.9259 99.3247 54.6045 99.3247 54.283L99.3995 54.283C99.6306 54.0473 99.7714 53.7384 99.7973 53.4101C99.7837 52.8079 99.9095 52.1583 99.6681 51.6169C99.6885 51.0993 99.6885 50.5951 99.6885 50.0843C99.8055 49.7895 99.8998 49.4864 99.9707 49.1775C100.01 48.9411 100.01 48.7 99.9707 48.4636C99.8925 47.9798 99.7667 47.5061 99.6647 47.0291L99.6647 46.7279L99.5593 46.4099C99.7259 46.1798 99.5831 46.0919 99.3859 46.0276L98.9711 44.4171L98.9569 44.4038C98.513 43.9886 98.0745 43.5786 97.8424 44.5829C97.5903 45.6198 97.5167 46.6917 97.6249 47.7531L97.5943 48.352C97.5166 48.4237 97.4491 48.5057 97.3937 48.5956C97.1251 49.1978 97.2441 49.8812 96.9789 50.4835C96.8565 50.947 96.7851 51.4241 96.6389 51.8842C96.5166 52.5778 96.469 53.2883 96.299 53.965C96.2582 51.5966 95.9998 49.2283 96.0882 46.8599C96.0221 46.7896 95.9671 46.7097 95.925 46.623L96.0032 46.3862L95.9828 45.7095C96.129 45.2731 96.2684 44.8434 95.8944 44.4441C95.8083 44.3857 95.7265 44.3213 95.6496 44.2513L95.5816 43.6727L95.6598 42.9961L95.5612 42.0487C95.4761 41.9843 95.3955 41.9142 95.3199 41.8389L95.1941 40.9694C95.2485 40.4991 95.2655 40.0491 94.6059 40.0153C94.6059 40.8307 94.5549 41.6495 94.8507 42.4344L94.9493 44.0246L94.9493 48.8053L94.2694 55.6364L94.232 55.9747L94.1572 56.5499C93.0965 60.248 92.2499 64.0069 90.7575 67.573C90.4651 67.8437 90.2679 68.1583 90.4447 68.588L89.7206 69.5252C89.659 70.1312 89.4081 70.7027 89.0032 71.1594C88.5377 71.6604 88.1893 72.2577 87.9833 72.9086L87.4462 73.7003L85.9333 75.9976L84.1518 78.119C83.5773 78.3457 83.5535 79.1002 82.9857 79.337C82.2618 79.797 81.7044 80.4751 81.3947 81.2723L81.3947 81.3163C81.0207 81.4889 81.0717 81.9862 80.7827 82.2231C80.6467 82.3483 80.5108 82.4768 80.3714 82.602L80.4122 82.6291C80.211 82.617 80.0096 82.6496 79.8226 82.7245C79.6357 82.7994 79.4678 82.9147 79.3311 83.0621C79.2938 83.1059 79.2597 83.1523 79.2291 83.2009C79.0115 83.1366 78.8075 83.2888 78.6035 83.3971C78.301 83.6948 77.9576 83.9689 78.0052 84.4121C77.758 84.4052 77.5113 84.4371 77.2742 84.5069L78.0834 83.6204C78.1786 83.6035 78.2704 83.6035 78.3621 83.6035C78.5661 83.1603 79.0183 82.8388 78.9979 82.2874L77.638 83.5798C77.2232 83.8099 76.8493 84.0772 76.9581 84.5948C76.8415 84.6395 76.728 84.6915 76.6181 84.7505C76.4883 84.8315 76.3654 84.9232 76.2509 85.0245L76.0775 85.17C75.996 85.2343 75.9246 85.3053 75.8498 85.373C75.57 85.3685 75.2973 85.4608 75.0784 85.6342C74.8595 85.8077 74.708 86.0514 74.6497 86.3237L73.3986 86.7399C73.3618 86.8375 73.33 86.9368 73.3034 87.0376C72.6812 87.3997 71.9061 87.7008 71.4642 88.1474C71.0222 88.594 71.1548 88.709 71.403 88.709C71.1139 88.924 70.9095 89.2328 70.825 89.5819C70.763 89.5841 70.7014 89.5931 70.6414 89.609C70.5557 89.6442 70.4857 89.7091 70.4442 89.7917L70.3355 89.7917C70.2917 89.6968 70.2124 89.6227 70.1145 89.5853C70.0238 89.5535 69.9285 89.5363 69.8323 89.5346L69.7915 89.5041C69.5297 89.45 69.2475 89.2977 69.1898 89.741C69.1236 89.7893 69.0611 89.8424 69.0028 89.9C68.9518 89.9541 68.9076 90.0116 68.86 90.0691C67.8809 89.4872 67.3913 90.4819 66.6808 90.7729C66.6695 90.8262 66.6714 90.8814 66.6862 90.9338C66.701 90.9862 66.7283 91.0343 66.7658 91.074C66.4938 91.2579 66.1989 91.4057 65.8886 91.5139C65.1514 91.9174 64.2888 92.0309 63.4715 91.8319C62.1388 91.974 60.8673 92.3969 59.5584 92.6507C59.4027 92.6892 59.2503 92.7401 59.1028 92.8029C58.4773 92.5187 57.8721 92.901 57.2636 93.2123C57.6614 93.554 58.0387 93.307 58.4229 93.192C57.8764 93.4566 57.2892 93.6281 56.6857 93.6995C56.3621 93.7213 56.0412 93.7723 55.7269 93.8518C55.5637 93.8924 55.3904 93.933 55.2238 93.9702C55.4278 93.7503 55.7677 93.8281 56.0465 93.7773C56.0448 93.6934 56.0711 93.6113 56.1213 93.5439C55.2204 93.6319 54.2515 93.2123 53.4015 93.8518L53.2725 93.845C52.8655 93.8235 52.4536 93.8018 52.0417 93.7773L51.9907 93.7773C54.1223 93.2089 56.3593 93.192 58.4739 92.5559C59.2218 92.3326 60.1091 92.2988 60.5375 91.4868L60.5375 91.5071C60.6566 91.5371 60.7822 91.5294 60.8967 91.4851C61.0112 91.4409 61.1091 91.3622 61.1767 91.2601C61.2259 91.1544 61.2851 91.0536 61.3534 90.959C62.6884 90.4312 64.0222 89.9011 65.3549 89.3688C65.532 89.3801 65.7066 89.322 65.8412 89.2069C65.9759 89.0919 66.06 88.929 66.0756 88.753C67.8129 88.594 69.0844 87.4166 70.5326 86.635C71.089 86.4822 71.5932 86.1816 71.9911 85.7655L72.6099 85.6674C73.3714 85.0719 74.2383 84.6016 74.8571 83.8369C74.8936 83.8548 74.931 83.8706 74.9692 83.8843C76.7167 83.4512 77.6788 81.9964 78.9129 80.89C79.1771 80.6144 79.4726 80.3702 79.7934 80.1626C80.7725 79.5028 81.4525 78.5724 82.0984 77.6149C82.4284 77.095 82.7989 76.6017 83.2067 76.1397C83.6657 75.2025 84.8624 74.6037 84.621 73.3349C85.5287 73.0067 85.8381 72.2928 85.8687 71.3895C85.8488 71.3517 85.8261 71.3155 85.8007 71.2812C86.8479 69.7472 87.6752 68.0756 88.2587 66.3144C88.3165 66.2839 88.3777 66.2569 88.4389 66.2264C88.3773 65.9868 88.3738 65.736 88.4288 65.4949C88.4838 65.2537 88.5956 65.0289 88.755 64.8392C89.503 63.2287 90.1387 61.5878 90.0605 59.7641C89.6662 59.7574 89.6696 59.4021 89.5234 59.172C89.6451 59.158 89.7617 59.1151 89.8633 59.0469C90.2781 58.6205 89.8429 58.0724 90.0707 57.6224L90.0877 56.6074C90.156 56.5155 90.2078 56.4125 90.2407 56.3029C90.4153 55.8622 90.4624 55.3817 90.3767 54.9157C90.4177 54.8076 90.4384 54.6929 90.4379 54.5774C90.9308 54.2391 90.6453 53.6639 90.8357 53.224L90.7677 52.994C90.8124 52.8895 90.8695 52.7907 90.9376 52.6996C90.9529 52.5454 90.9299 52.3897 90.8706 52.2464C90.8113 52.103 90.7176 51.9764 90.5977 51.8775C91.06 51.7895 90.8935 51.3124 91.06 51.0418L91.06 48.2505C90.9274 47.6144 90.8051 46.9783 91.0974 46.3524C91.7434 45.4828 90.8901 44.6302 91.0634 43.7675C91.0547 43.6943 91.0201 43.6267 90.966 43.5765C90.9118 43.5263 90.8416 43.4969 90.7677 43.4934C90.8697 42.9487 90.9274 42.4107 90.4651 41.9574C90.4971 41.9075 90.5163 41.8505 90.521 41.7916C90.5257 41.7326 90.5159 41.6733 90.4923 41.619C90.3767 40.5702 90.6215 39.4773 90.2441 38.4623C90.1805 38.2635 90.0852 38.0762 89.9619 37.9074C90.2611 36.8383 89.6084 35.9485 89.3806 34.9842C88.4763 31.161 86.5384 27.8351 84.2096 24.7325C83.8187 24.2115 83.7847 23.3183 82.9212 23.1728C82.775 22.3811 81.8366 21.9987 81.8366 21.1427C81.8547 21.0284 81.8406 20.9113 81.7958 20.8044C79.569 17.1842 76.7099 14.2406 72.8172 12.4271C72.4195 12.4982 72.0353 12.532 71.8857 12.0177C71.2058 11.5102 70.944 10.3159 69.8459 10.4512C69.8508 10.4035 69.8455 10.3553 69.8302 10.3098C69.815 10.2643 69.7902 10.2226 69.7575 10.1873C68.469 8.94224 67.5035 7.39603 66.0178 6.35056C65.0183 6.02914 64.0834 5.43027 62.9581 5.52501C62.251 5.52566 61.5531 5.36477 60.9183 5.05472C60.0378 4.84834 59.3068 4.0431 58.2869 4.39835C58.1449 4.48205 57.9915 4.54474 57.8313 4.58443L57.7702 4.45924C57.369 4.09722 56.9236 4.2427 56.4817 4.36112C56.2403 4.39834 56.0023 4.43556 55.7643 4.4694C54.7376 4.43781 53.712 4.4051 52.6876 4.37127C52.5862 4.41321 52.4816 4.44715 52.3748 4.47278L51.7595 4.47278L51.7595 4.3882C51.6531 4.30421 51.5213 4.2585 51.3855 4.2585C51.2497 4.2585 51.1179 4.30421 51.0115 4.3882L49.9712 4.74345C49.9643 4.85613 49.9643 4.96911 49.9712 5.08178C50.3724 5.38968 50.828 5.22727 51.2631 5.22727C51.3652 5.17959 51.4602 5.11812 51.5453 5.04458C51.9329 5.07841 52.3204 5.10886 52.708 5.13931L52.7891 5.1276C52.996 5.09772 53.2008 5.06813 53.4083 5.04119C53.7483 5.0581 54.0883 5.0581 54.4282 5.0581C54.6063 5.08255 54.7871 5.10423 54.9657 5.12564L55.0232 5.13254C57.6784 5.62313 59.7624 7.17949 61.8464 8.74261C61.9144 8.79336 62.1354 8.63773 62.285 8.57683C62.7847 8.8881 63.3627 9.04713 63.8556 9.38546L63.91 9.42267C63.8229 9.45477 63.7414 9.50046 63.6686 9.55802L63.7298 9.55802C64.3282 10.6847 64.7633 10.776 65.4637 9.91327L68.741 11.2666L68.7784 11.5102C68.2888 11.8486 67.8163 11.0061 67.2689 11.5373C67.4729 12.0516 67.9761 12.1226 68.3874 12.3087C68.7847 12.7863 69.343 13.1037 69.9581 13.2019C70.6949 13.9616 71.5677 14.5777 72.5317 15.0188L72.8716 15.3132C72.8894 15.4196 72.9214 15.5231 72.9668 15.621C73.0314 15.9628 73.2184 16.1319 73.5788 16.071L76.6385 18.5308L76.6657 18.6627L76.7915 18.6999C76.5127 20.0499 77.8624 20.4322 78.4641 21.1732C79.0713 21.9038 79.7327 22.588 80.4428 23.2201L81.5171 25.1994C81.7551 25.9336 81.976 26.6712 82.2378 27.3986C82.4656 28.0347 82.8294 27.9332 83.2203 27.5306C83.8527 28.1091 84.4442 28.7046 84.2402 29.6621C83.9717 30.914 85.8619 30.8362 85.7327 32.1523C85.6681 32.7782 86.3005 33.4549 86.62 34.1316C87.0824 34.6357 86.6846 35.3225 86.9838 35.8639C87.0539 36.0259 87.1141 36.192 87.164 36.3612C87.1091 36.293 87.0408 36.2366 86.9634 36.1954C86.6642 36.324 86.6642 36.6184 86.5894 36.8721C86.6948 37.5488 86.6846 38.2559 87.4598 38.5638C87.5571 38.4082 87.6165 38.2321 87.6331 38.0495C87.7308 38.2286 87.8446 38.3985 87.9731 38.557L88.3131 38.557L88.7652 40.8036C89.4044 40.966 89.4656 41.6968 89.9551 42.0047C90.0061 42.0267 90.0599 42.0415 90.1149 42.0487C90.0571 42.184 89.9789 42.2957 89.7749 42.2585C89.7117 42.1985 89.6277 42.165 89.5404 42.165C89.453 42.165 89.369 42.1985 89.3058 42.2585C88.942 42.8134 89.0134 43.3919 89.197 43.9772C89.2484 44.1922 89.2724 44.4127 89.2684 44.6336C89.2391 44.5287 89.1907 44.4301 89.1256 44.3426C89.0624 44.182 88.9626 44.0381 88.834 43.9225C88.7053 43.8068 88.5515 43.7225 88.3845 43.6761L88.3675 45.4186L88.1329 45.2528C88.0233 45.1802 87.9098 45.1136 87.7929 45.0532C87.8184 44.756 87.8184 44.4571 87.7929 44.1599C87.7677 43.8866 87.6625 43.6267 87.4903 43.4122C86.7526 43.0942 86.8512 43.7235 86.722 44.0889C86.7215 44.196 86.6896 44.3006 86.6302 44.39L86.6302 46.102C86.6846 46.8802 87.4733 47.6787 86.6302 48.4704C85.8109 49.4888 86.2665 50.6831 86.1509 51.7996C86.1781 52.2665 86.1713 52.747 86.4908 53.1225C86.3075 53.2542 86.1564 53.4253 86.0489 53.6233C85.7701 54.5402 85.5593 55.4808 85.2193 56.374C85.1401 56.9796 85.1083 57.5905 85.1242 58.201C85.1208 59.8115 83.5977 60.7994 83.3495 62.3152C83.2441 61.9972 82.8804 61.8145 82.6696 61.5506L82.7138 61.5506C84.519 60.7994 84.1314 59.0502 84.519 57.6529C84.5752 57.5015 84.6218 57.3467 84.6584 57.1894C84.733 56.8811 84.774 56.5658 84.7808 56.2488C84.7593 56.0932 84.6945 55.9467 84.5938 55.8259C84.2708 55.6905 83.9547 55.3285 83.6147 55.7954L82.129 60.4104L82.1664 61.087C81.6531 62.2712 81.2043 63.496 80.6026 64.6396C80.2524 65.3061 80.9357 65.6749 80.8337 66.2196L79.722 68.5677C78.4675 68.023 78.182 69.241 77.502 69.7485C76.9683 70.1376 77.1485 71.3793 75.996 71.0037C76.0538 69.9278 75.4384 70.547 75.0338 70.6316C74.8673 70.2086 75.2752 69.9853 75.3738 69.647C75.8362 69.2241 76.1625 68.7403 75.8702 68.0636C75.1324 68.1888 75.044 68.8824 74.6871 69.3154C74.0071 69.6978 73.9187 70.3305 74.0071 71.0071L73.3272 71.7075C73.2284 71.7809 73.1605 71.8882 73.1368 72.0086C73.1334 72.1319 73.1163 72.2545 73.0858 72.374C72.9566 72.533 72.7832 72.5635 72.6167 72.6379L72.1951 73.0744L72.2631 73.2875L72.2631 73.3214L72.2053 73.592C72.1256 73.5647 72.0411 73.5543 71.9571 73.5616C71.8115 73.5781 71.6748 73.6396 71.5661 73.7375C71.4465 73.8438 71.333 73.9568 71.2262 74.0759C71.1344 74.1469 71.1072 74.218 71.1344 74.2924C71.0489 74.2955 70.9642 74.3103 70.8828 74.3364C69.6249 74.4345 69.3869 76.0315 68.163 76.1905C67.7789 76.1769 67.5953 76.4239 67.4389 76.7115L66.759 77.148C66.2286 77.642 65.5011 77.9059 65.0387 78.5013C63.8862 79.6314 62.3666 80.0272 60.9115 80.5551C60.3369 80.7614 59.7794 81.022 59.2116 81.2554C58.8547 81.3772 58.5147 81.5024 58.1747 81.6242C55.2544 81.6682 52.5142 82.8287 49.6075 82.9776C48.1252 82.964 46.6565 82.9606 45.1879 82.9268L45.1854 82.9267C44.6016 82.9098 44.0485 82.8938 43.7396 83.5155C42.5871 83.7354 41.4856 83.2516 40.3399 83.2212L40.1223 83.2212C40.0199 83.2424 39.9213 83.2789 39.8299 83.3294L38.6264 83.2482C38.5945 83.2351 38.5638 83.2193 38.5346 83.2009C38.4468 83.1104 38.3446 83.0349 38.2321 82.9776C36.7702 83.2651 35.8761 81.8509 34.5434 81.7528C33.0951 80.6363 31.1879 80.5551 29.6954 79.54C28.3559 78.8092 27.3428 77.4322 25.6158 77.4322L20.4652 72.303C16.2326 67.732 13.9956 62.0919 12.051 56.3401C11.575 54.9225 11.7892 53.3019 11.15 51.8774C10.3613 49.7121 11.4356 47.5907 11.2486 45.449C11.3352 45.4172 11.4166 45.3727 11.49 45.3171C11.6498 45.2359 11.6566 45.1445 11.5138 45.0362C11.983 37.8871 14.6347 31.567 18.4696 25.5547C19.9995 23.1592 22.2841 21.5318 23.7765 19.1905C24.2117 18.5071 24.9596 18.162 25.6226 17.7391C27.1626 16.9879 28.0092 15.3707 29.5934 14.65C32.8911 13.141 36.1446 11.5339 39.6395 10.4986C40.6731 10.1772 41.7202 9.87606 42.7401 9.53772C42.8835 9.5654 43.0319 9.55356 43.1691 9.50347C43.3063 9.45338 43.4272 9.36695 43.5186 9.2535L44.117 9.2535C44.273 9.28628 44.4357 9.25918 44.5725 9.17761C44.7093 9.09604 44.8101 8.96605 44.8547 8.81366C45.0349 8.8069 45.2015 8.78998 45.3748 8.78998C45.453 8.59713 45.9494 8.33999 45.453 8.22496C44.9023 8.09301 44.2631 8.03209 43.7532 8.48208L43.3554 8.16743C43.509 8.0022 43.6995 7.87535 43.9116 7.79716C44.1236 7.71898 44.3512 7.69166 44.5759 7.71745C44.6679 7.73577 44.7627 7.73577 44.8547 7.71745C45.2939 7.78835 45.7444 7.72093 46.1432 7.52459C46.7687 8.72909 47.3603 8.27571 47.9484 7.49076C49.7469 7.53474 48.9581 6.3844 48.8527 5.5487C48.1694 5.19344 47.7818 4.33406 46.8571 4.39496C46.091 4.14233 45.3238 3.90324 44.5555 3.67769C44.0932 3.34273 43.59 3.36979 43.0732 3.40024L43.1072 3.31566Z" fill="#FCF8EE"/>
<path d="M47.5578 1.03648L48.9177 0.894376C49.564 0.788456 50.222 0.773648 50.8725 0.85039C50.9141 0.87014 50.9505 0.899309 50.9788 0.935564C51.0071 0.97182 51.0265 1.01416 51.0354 1.0592C51.0444 1.10424 51.0426 1.15073 51.0302 1.19496C51.0179 1.23919 50.9953 1.27993 50.9643 1.31393L50.2843 1.73008C50.1169 1.80925 49.9323 1.84576 49.7471 1.83631C49.562 1.82686 49.3821 1.77175 49.2236 1.67594C48.8123 1.14813 47.9895 1.74362 47.5578 1.03648Z" fill="#FCF8EE"/>
<path d="M41.7037 0.986013C41.8329 1.0909 41.8295 1.19578 41.7037 1.30067L39.1777 2.04163C39.4692 1.66205 39.8564 1.366 40.3001 1.18357C40.7437 1.00113 41.228 0.938813 41.7037 1.00293L41.7037 0.986013Z" fill="#FCF8EE"/>
<path d="M64.3369 3.42067L64.6769 4.04321C64.1839 4.60146 63.8236 3.87404 63.385 3.91126C63.3 3.57292 62.5861 3.74547 62.7968 3.26503C62.9498 2.9267 63.266 3.24812 63.5108 3.29887C63.7556 3.34962 64.0581 3.38007 64.3369 3.42067Z" fill="#FCF8EE"/>
<path d="M37.7224 2.25416C37.9774 2.6737 37.158 2.52482 36.9133 2.77519C36.8268 2.87857 36.7064 2.94811 36.5733 2.97144C36.3591 2.97144 36.1415 3.00188 35.9273 3.0188L36.2673 2.41994C36.7705 2.46731 37.3484 1.63838 37.7224 2.25416Z" fill="#FCF8EE"/>
<path d="M45.501 0.000252063C45.6574 0.111904 45.6642 0.216784 45.501 0.321669L43.8011 0.944214L43.4612 0.62956L43.7739 0.226934C44.3859 0.433322 44.9128 -0.0132816 45.501 0.000252063Z" fill="#FCF8EE"/>
<path d="M33.6113 3.98987C34.0192 3.18463 34.3388 3.05944 35.1887 3.36733C34.6561 3.57259 34.1303 3.7801 33.6113 3.98987Z" fill="#FCF8EE"/>
<path d="M80.8888 56.2899C80.6848 56.7906 81.0452 57.4977 80.3278 57.8124C79.7771 57.8395 80.2598 57.447 80.1205 57.3116L80.1205 56.2797C79.9335 55.8805 79.9233 55.5692 80.491 55.5421C80.8888 55.6538 80.797 56.0124 80.8888 56.2899Z" fill="#FCF8EE"/>
<path d="M81.066 45.5039C81.865 46.0621 80.9334 46.9046 80.9708 47.6489C80.7703 47.1516 80.7839 46.6677 80.5153 46.2008C80.3317 45.8828 80.3895 45.0268 81.066 45.5039Z" fill="#FCF8EE"/>
<path d="M88.0276 43.3416C87.3476 43.4938 87.6298 42.7934 87.3476 42.6006L87.3034 42.2623L87.3884 41.6194C87.334 41.2811 87.1232 40.8142 87.6502 40.7093C87.9902 40.6416 88.0276 41.0036 87.9902 41.2845L88.0446 41.2472L88.0276 43.3416Z" fill="#FCF8EE"/>
<path d="M75.925 67.5226C76.1188 66.944 76.1494 66.4365 77.1183 66.1117C76.6253 66.7444 76.7171 67.3297 75.925 67.5226Z" fill="#FCF8EE"/>
<path d="M84.0704 39.3689C83.9197 39.1687 83.8383 38.9254 83.8383 38.6753C83.8383 38.4252 83.9197 38.1819 84.0704 37.9817C84.2136 38.1849 84.2904 38.4271 84.2904 38.6753C84.2904 38.9235 84.2136 39.1657 84.0704 39.3689Z" fill="#FCF8EE"/>
<path d="M92.8662 52.9484L92.7608 54.1901L92.4208 53.8517L92.516 52.6946C92.4257 52.5672 92.3611 52.4236 92.3256 52.2717C92.31 52.1223 92.3486 51.9723 92.4344 51.8488C92.5921 50.8344 92.4976 49.797 92.159 48.8274C92.4616 48.4586 92.159 47.9409 92.3936 47.5518L92.3494 47.403C92.3036 46.8403 92.2899 46.2755 92.3086 45.7113L92.3086 45.6842C92.2712 45.6538 92.2406 45.6165 92.1998 45.5861L92.0775 44.341L92.1421 44.1109C92.0985 44.004 92.0438 43.902 91.9789 43.8064C91.9322 43.2697 91.947 42.7294 92.0231 42.1959C92.0254 42.1428 92.0436 42.0915 92.0754 42.0487C92.1072 42.0059 92.1511 41.9735 92.2015 41.9557C92.2519 41.9379 92.3065 41.9355 92.3583 41.9487C92.4101 41.962 92.4567 41.9903 92.4922 42.0301C92.6792 42.1858 92.6214 42.4159 92.5636 42.6222L92.5296 42.9606C93.0396 43.4816 92.9274 44.1921 93.111 44.8147L93.2062 46.388C93.4475 47.7616 93.8113 49.1319 93.2232 50.5089L93.1348 50.4649C93.1552 51.3074 93.2062 52.1499 92.8662 52.9484Z" fill="#FCF8EE"/>
<path d="M93.9126 36.4599C93.9126 33.3134 92.1719 30.742 91.0466 27.971C90.5672 27.0372 89.5065 26.3707 89.7411 25.1154L90.4211 25.5654C90.4658 25.7206 90.5431 25.8645 90.6481 25.9876C90.753 26.1107 90.8831 26.2102 91.0296 26.2793C91.5702 26.6177 92.1311 26.9763 91.9985 27.7105C92.2513 27.7857 92.479 27.9271 92.6581 28.1199C93.1713 28.6666 93.46 29.3849 93.4672 30.133L94.2661 32.3897C94.2323 32.5698 94.2366 32.7548 94.2787 32.9331C94.3209 33.1114 94.4 33.2789 94.5109 33.425C94.8747 33.8514 94.7931 34.3081 94.6095 34.7784L94.5109 35.4551C94.4729 35.4784 94.4412 35.5106 94.4187 35.549C94.3962 35.5873 94.3835 35.6306 94.3817 35.675L94.5109 35.4551L94.5653 37.8674C93.9533 37.5731 93.9465 37.0114 93.9126 36.4599Z" fill="#FCF8EE"/>
<path d="M86.2939 20.3787C87.1268 20.5073 87.2458 21.1975 87.443 21.8268C86.7087 21.6204 86.4061 21.0858 86.2939 20.3787Z" fill="#FCF8EE"/>
<path d="M92.1847 57.7141C92.0997 58.3603 92.2051 59.0674 91.6 59.5715C91.277 58.7629 91.6442 58.0558 91.8346 57.3317L91.9229 56.5197C92.0589 56.5637 92.2459 56.5671 92.3139 56.6618C92.6097 57.0374 92.4159 57.3825 92.1847 57.7141Z" fill="#FCF8EE"/>
<path d="M85.23 19.4504C85.1351 19.4405 85.0416 19.4201 84.9513 19.3895C84.8076 19.3827 84.6669 19.3457 84.5386 19.2809C84.4103 19.2162 84.2972 19.1252 84.2067 19.0139C81.8514 16.2288 79.1588 13.7446 76.1902 11.6178C76.0116 11.525 75.8647 11.3817 75.7679 11.2058C75.6711 11.03 75.6288 10.8296 75.6463 10.6299C75.6231 10.6563 75.5981 10.6812 75.5715 10.7043C75.0037 10.8802 74.5856 10.5554 74.1708 10.2611C72.131 8.81974 69.8906 7.68292 67.7386 6.41415C67.2138 6.02098 66.643 5.69264 66.0387 5.43635C65.4914 5.09801 64.5632 4.99312 65.0528 3.95781C65.211 3.86969 65.3914 3.82889 65.5723 3.84029C65.7532 3.8517 65.927 3.91482 66.0727 4.02209C66.5963 4.62095 67.1844 3.75819 67.7216 4.09314C68.0735 4.09561 68.4196 4.18276 68.7304 4.34712C69.0412 4.51149 69.3074 4.74821 69.5064 5.03711C69.6048 5.17458 69.7348 5.28657 69.8857 5.36369C70.0365 5.44081 70.2037 5.4808 70.3733 5.48033C71.6006 5.62244 72.4132 6.4243 73.2529 7.21601C73.3413 7.50699 73.5928 7.52052 73.824 7.5239C74.453 7.78781 75.2519 7.79457 75.4763 8.64381C75.466 8.71109 75.466 8.77953 75.4763 8.84681C77.0402 8.90433 77.6453 10.2002 78.4408 11.2321C78.8794 11.6178 79.4879 11.8039 79.7701 12.3723L80.1101 12.7106C80.535 12.6937 80.6642 13.0151 80.807 13.3163C81.7039 13.7608 82.5029 14.3787 83.1572 15.1339C83.8116 15.8891 84.3082 16.7664 84.6181 17.7147C85.1382 18.053 85.8556 18.256 85.8216 19.068C86.1956 19.3116 86.199 19.7109 86.1616 20.1203C85.6142 20.2015 85.4408 19.7887 85.23 19.4504Z" fill="#FCF8EE"/>
<path d="M84.9239 53.8541C84.8279 53.9046 84.7169 53.919 84.6111 53.8947L84.6621 51.9865C84.8763 51.9358 85.0871 51.885 85.3013 51.8376C85.0123 52.4805 85.5358 53.2857 84.9239 53.8541Z" fill="#FCF8EE"/>
<path d="M84.9721 49.1377C85.1387 48.5456 85.8629 48.1667 85.6283 47.4257C86.2844 48.3325 85.9206 49.246 85.6283 50.1595C85.4787 50.711 85.7235 51.3471 85.2883 51.8512C84.503 51.0155 85.0061 50.0479 84.9721 49.1377Z" fill="#FCF8EE"/>
<circle cx="50.0002" cy="49.9994" r="40" transform="rotate(90 50.0002 49.9994)" fill="#FCF8EE"/>
</g>
</svg>
