<svg width="370" height="402" viewBox="0 0 370 402" fill="none" xmlns="http://www.w3.org/2000/svg">
<path d="M256.084 389.326L256.475 389.065C256.834 389.044 257.181 388.934 257.485 388.744C257.79 388.553 258.041 388.289 258.216 387.976C258.515 388.014 258.818 387.936 259.061 387.758C259.304 387.579 259.469 387.314 259.522 387.018C262.047 387.018 263.527 384.796 265.442 383.577L266.356 382.749C267.532 382.749 268.228 381.704 269.186 381.181C271.931 379.773 274.565 378.157 277.065 376.347C280.112 374.213 282.854 371.73 285.771 369.596C288.805 366.991 292.085 364.686 295.565 362.715C296.435 362.323 296.871 360.929 298.177 360.929C298.177 360.929 298.568 360.58 298.525 360.493C298.177 358.925 299.482 358.925 300.266 358.925C300.556 358.951 300.847 358.89 301.102 358.75C301.358 358.611 301.567 358.399 301.702 358.142C303.431 355.836 305.704 353.995 308.319 352.784C312.672 349.866 312.672 349.866 308.319 347.34C304.235 345.181 299.823 343.709 295.26 342.985C292.474 342.462 289.601 343.29 286.902 342.506C284.684 342.198 282.429 342.287 280.242 342.767C278.326 343.089 276.361 342.97 274.496 342.419C272.61 341.589 270.521 341.332 268.489 341.678C267.15 341.995 265.769 342.098 264.398 341.983C259.651 341.504 254.867 341.504 250.12 341.983C249.567 342.032 249.039 342.232 248.593 342.563C248.148 342.893 247.802 343.341 247.595 343.856C247.595 345.729 246.072 346.469 245.506 347.863C245.158 347.863 244.766 347.863 244.592 348.298L243.765 348.647C243.402 348.533 243.013 348.545 242.658 348.679C242.303 348.813 242.003 349.062 241.806 349.387C240.935 350.215 239.978 349.387 239.064 349.387C235.073 349.491 231.104 350.016 227.224 350.955C225.439 351.521 223.175 349.953 221.782 352.175C220.738 351.783 219.432 352.175 218.518 351.173C218.518 350.868 217.125 350.912 217.255 351.173C217.647 352.697 216.559 351.87 216.167 351.957C214.034 352.436 211.335 350.781 209.812 353.655C209.812 353.655 208.898 353.655 208.549 353.655C207.824 353.395 207.044 353.322 206.283 353.444C205.522 353.566 204.804 353.878 204.196 354.352C202.581 354.476 200.979 354.738 199.408 355.136C196.898 356.197 194.242 356.872 191.529 357.14C191.094 357.14 190.354 356.835 190.311 357.575C190.267 358.316 190.789 358.751 191.616 358.49C191.355 358.838 191.616 359.143 191.616 359.492C190.876 358.49 189.396 358.708 188.656 357.619C188.571 357.5 188.448 357.413 188.307 357.373C188.166 357.333 188.016 357.341 187.881 357.396C187.745 357.451 187.632 357.551 187.559 357.678C187.487 357.805 187.459 357.953 187.481 358.098C187.916 359.797 186.611 359.405 185.914 359.579C185.218 359.753 183.781 359.797 182.693 359.927L185.131 358.098C183.675 357.91 182.197 358.026 180.788 358.438C179.38 358.85 178.072 359.55 176.947 360.493C177.39 360.7 177.873 360.807 178.362 360.807C178.851 360.807 179.333 360.7 179.776 360.493C180.2 360.191 180.683 359.981 181.192 359.876C181.702 359.771 182.228 359.774 182.736 359.884C181.996 361.408 180.386 360.929 179.167 361.277C177.948 361.626 176.425 362.018 176.338 361.277C176.076 359.492 174.988 361.277 174.64 360.668C174.292 360.058 174.379 360.101 174.031 360.668C172.899 360.668 172.594 361.452 172.289 362.279C171.941 362.279 171.898 362.758 172.289 362.976C172.426 363.101 172.605 363.171 172.79 363.171C172.975 363.171 173.154 363.101 173.291 362.976C173.552 362.976 173.856 362.976 174.031 362.976C174.205 362.976 174.031 363.324 174.031 363.368C173.328 363.513 172.642 363.732 171.985 364.021C169.982 364.544 168.415 366.46 166.065 365.85C165.804 363.978 165.02 365.415 164.019 365.459L165.76 366.199C166.413 367.201 165.064 367.506 165.02 368.246C163.888 367.244 163.279 368.246 162.539 368.856C160.544 369.553 158.49 370.063 156.401 370.38C156.04 370.574 155.636 370.676 155.226 370.676C154.816 370.676 154.412 370.574 154.051 370.38C154.051 370.38 154.051 369.857 154.051 369.596C154.051 368.464 155.182 368.899 155.792 368.681C156.401 368.464 156.836 368.681 156.749 368.115C156.662 367.549 156.053 367.462 155.531 367.593C155.008 367.723 153.964 368.159 153.093 367.593C152.222 367.026 151.918 367.985 151.352 368.289C150.786 368.594 151.613 368.856 151.569 368.899C151.526 368.943 150.916 368.899 150.873 368.594C150.829 368.289 150.307 367.941 149.915 367.723C149.524 367.506 148.784 367.114 149.132 366.634C149.48 366.155 149.611 365.284 150.568 365.502C151.526 365.72 151.526 365.807 151.526 365.067C151.526 364.326 151.047 364.37 150.481 364.326C149.915 364.283 149.349 364.326 149.306 363.368C149.306 360.929 147.869 359.753 145.301 359.971C146.259 359.535 146.389 358.708 145.954 358.142C145.407 357.149 145.08 356.049 144.996 354.919C144.648 353.568 144.996 352.959 146.433 353.002V353.307H146.694H146.389C146.183 352.28 146.353 351.213 146.868 350.302C147.373 349.15 147.48 347.863 147.173 346.643C145.999 341.296 145.127 335.887 144.561 330.441C144.561 329.745 144.996 329.048 144.561 328.351C143.84 327.193 143.381 325.891 143.216 324.537C143.05 323.183 143.183 321.809 143.604 320.511C143.604 319.988 143.604 319.858 143.212 319.466C142.435 317.272 142.066 314.955 142.124 312.628C142.124 311.496 142.124 310.102 141.862 308.839C141.779 308.584 141.779 308.31 141.862 308.055C143.299 307.576 142.472 307.01 141.862 306.487C141.253 305.964 140.774 306.182 141.035 305.616C141.949 303.787 140.513 302.175 141.035 299.736C138.946 302.262 137.596 304.527 135.812 306.487C133.695 308.266 132.175 310.653 131.459 313.325C130.762 316.384 131.163 319.591 132.591 322.384C133.822 324.235 134.803 326.242 135.507 328.351C136.152 330.742 137.245 332.988 138.728 334.971C140.747 337.602 142.105 340.678 142.689 343.943C143.038 346.121 144.822 348.037 144.039 350.432C143.699 351.262 143.522 352.149 143.516 353.046C143.826 356.191 143.47 359.367 142.472 362.366C141.88 364.087 141.629 365.906 141.732 367.723L141.253 369.422C140.861 370.467 141.732 371.643 140.948 372.645V373.559C140.034 374.605 141.166 376.086 140.252 377.131V377.61V377.915C139.033 378.612 140.252 380.18 139.164 380.964C138.075 381.748 137.858 381.268 138.162 382.27C138.552 384.315 138.197 386.432 137.161 388.237C136.413 389.25 135.785 390.346 135.289 391.504C134.065 394.73 132.488 397.812 130.588 400.693C130.022 401.477 129.674 401.39 128.847 401.303C126.671 401.303 125.539 398.908 123.188 398.821C120.838 398.733 118.835 397.209 116.093 397.427C115.438 397.368 114.809 397.143 114.265 396.774C111.74 395.51 109.694 393.072 106.473 393.42C106.329 393.379 106.205 393.286 106.125 393.159C104.166 389.979 100.596 389.674 97.4188 388.542C95.4618 387.604 93.6332 386.418 91.9777 385.014C89.1483 383.011 86.7541 380.659 83.9247 378.525C79.7427 376.308 75.7274 373.79 71.9106 370.99C70.7018 370.122 69.5394 369.192 68.4283 368.202C67.9338 367.542 67.2622 367.036 66.4916 366.743C65.721 366.451 64.883 366.383 64.0753 366.547C62.3193 366.758 60.5409 366.684 58.8083 366.33C57.5255 365.982 56.1733 365.982 54.8906 366.33C54.1941 366.33 53.6718 365.85 53.0624 365.72C53.0624 364.892 52.5835 364.5 51.7565 364.675L50.0588 363.847C49.58 362.54 48.013 362.061 47.5777 360.711C47.8824 360.363 48.1871 360.014 48.0565 359.535C47.8152 357.51 47.9479 355.458 48.4483 353.481C48.7965 352.436 48.1871 351.391 48.7094 350.258C49.58 348.298 50.233 346.164 50.973 344.117C52.6271 342.549 53.3235 340.328 55.3259 338.76C56.722 337.642 57.7403 336.122 58.2424 334.405C58.5229 334.497 58.8262 334.491 59.1029 334.388C59.3796 334.285 59.6133 334.091 59.7659 333.839C61.7298 331.15 63.9138 328.63 66.2953 326.304H66.7741C68.5527 325.05 70.1749 323.588 71.6059 321.948C73.7631 320.248 75.8129 318.415 77.7436 316.461C82.0965 313.194 80.7471 311.016 79.0494 307.271C78.3965 305.877 77.5259 304.614 76.873 303.177C75.7047 300.329 74.6876 297.421 73.8259 294.466C73.3545 291.832 73.0636 289.169 72.9553 286.496C72.4904 280.907 72.6364 275.285 73.3906 269.728C75.2993 257.611 79.4158 245.949 85.5353 235.32C84.8191 235.377 84.123 235.585 83.4928 235.931C82.8626 236.276 82.3126 236.751 81.8788 237.324C81.0886 238.411 79.9269 239.171 78.6141 239.458C77.0906 239.458 76.3941 240.547 75.3494 241.244C73.4403 242.749 71.8434 244.613 70.6483 246.731C68.6596 249.522 66.8425 252.431 65.2071 255.442C64.8153 256.182 63.9447 256.705 64.0318 257.707C64.0318 257.707 62.6824 257.228 62.9 258.36C62.9 258.578 63.7706 258.665 64.2494 258.839C63.0306 258.839 61.6377 258.839 61.6812 260.756C61.6315 261.805 61.2505 262.811 60.593 263.63C60.2012 263.238 60.0706 263.63 59.7659 263.63C58.8083 264.85 59.4177 267.071 57.3283 267.593V267.985C54.4988 267.985 54.1941 271.034 52.9753 272.646C51.2777 274.91 48.6224 276.217 47.273 278.787C45.5611 280.553 43.5586 282.011 41.353 283.099C37.6965 286.191 34.0835 289.327 30.34 292.288C27.5106 294.553 24.333 296.644 21.6341 298.821C20.6765 299.693 19.4577 298.168 18.8047 299.78C18.8047 300.172 18.413 301.217 17.6294 301.565C13.8234 303.858 9.3872 304.88 4.96236 304.483C4.22341 304.439 3.53025 304.11 3.02744 303.566C2.52462 303.023 2.25097 302.306 2.26354 301.565C2.26354 300.738 2.69884 299.431 1.48001 298.778C1.44515 297.533 1.29947 296.294 1.04472 295.076C0.740011 294.161 1.34942 292.855 -0.0435181 292.375C0.522364 290.59 1.69766 288.891 0.8706 286.931C0.400573 285.202 0.253012 283.401 0.435306 281.618C1.17531 280.137 2.00236 278.656 2.78589 277.262C3.7279 275.689 4.54303 274.044 5.22354 272.341C6.87766 272.689 8.14001 271.557 9.57648 271.078C11.496 270.693 13.3101 269.898 14.895 268.748C16.48 267.598 17.7986 266.12 18.7612 264.414C19.2045 264.297 19.6099 264.067 19.9379 263.746C20.2659 263.426 20.5054 263.025 20.633 262.585C21.2563 262.327 21.7872 261.887 22.1565 261.322C24.0718 259.188 26.0741 256.966 28.12 255.05C29.6339 253.8 30.9542 252.332 32.0377 250.695C34.0882 248.796 36.0216 246.774 37.8271 244.641C40.2212 242.463 41.7012 238.935 45.5753 238.63C46.1412 238.63 46.0977 238.369 45.8365 237.977C44.9659 236.54 46.3588 235.799 46.9683 235.146C48.9271 233.012 51.3212 231.27 53.1059 229.005C54.02 227.916 55.8483 227.698 56.0224 226L62.0294 219.205C62.0294 219.205 62.3341 219.205 62.3341 218.944C62.3341 218.683 63.0306 218.378 63.1177 217.899C65.0055 216.812 66.5917 215.27 67.7318 213.413C68.1803 212.939 68.481 212.345 68.5969 211.703C68.7129 211.061 68.6392 210.399 68.3847 209.798C67.253 207.794 68.08 205.442 67.4706 203.526C66.8612 201.61 67.4706 199.824 66.1212 198.343C66.8612 196.035 65.7294 193.988 65.6424 191.636C65.4247 188.152 65.0765 184.711 64.7718 181.227C64.7718 180.007 65.3377 178.788 64.7718 177.568C64.6631 175.488 64.7505 173.403 65.033 171.34C65.033 166.593 65.773 161.889 65.8165 157.141C65.9139 156.993 65.9657 156.819 65.9657 156.641C65.9657 156.463 65.9139 156.289 65.8165 156.14C66.1452 155.078 66.3497 153.982 66.4259 152.873C66.4259 150.608 67.5141 148.082 65.12 146.297C65.0391 146.246 64.9724 146.175 64.9262 146.091C64.88 146.007 64.8557 145.913 64.8557 145.818C64.8557 145.722 64.88 145.628 64.9262 145.544C64.9724 145.46 65.0391 145.389 65.12 145.338C66.6 144.25 65.7294 142.638 65.9906 141.288C67.9494 140.896 68.08 139.023 68.4283 137.717C70.6047 130.225 71.693 122.429 74.4788 115.112C74.4788 114.764 74.4788 114.241 74.2612 113.806V113.283C74.8271 113.283 75.2188 112.847 75.1318 112.194C75.7412 109.32 76.2635 106.402 77.0471 103.483C77.5259 101.698 78.9188 99.9991 76.4377 98.5619C76.22 98.5619 76.4377 97.2988 75.6977 97.7779C74.9577 98.257 73.173 96.9068 72.9988 98.9103C73.6953 99.1716 74.6094 98.0392 74.9577 99.1716C75.3059 100.304 73.9565 99.9556 73.4777 100.348L73.173 100.652C70.3 102.177 68.3412 105.748 64.4671 104.485C64.4671 104.485 64.1188 104.485 64.1188 104.703C63.5965 106.881 61.4635 106.619 60.0706 107.447C59.9095 107.298 59.7133 107.191 59.5002 107.138C59.2872 107.085 59.0642 107.086 58.8518 107.142C57.3283 107.49 57.0671 109.015 56.153 109.799C54.4786 111.129 52.596 112.174 50.5812 112.891C47.0695 114.016 43.6733 115.475 40.4388 117.246C39.5724 117.935 38.5825 118.453 37.5224 118.771C34.7672 119.384 31.9034 119.307 29.185 118.547C26.4666 117.788 23.9776 116.368 21.9388 114.415C21.0247 113.457 20.0235 112.63 19.0659 111.715C17.324 110.38 16.0148 108.56 15.3024 106.484C14.5899 104.407 14.506 102.167 15.0612 100.043C15.3224 99.7814 15.7577 99.6507 15.54 99.1716L15.2353 97.5601C15.5835 95.4696 17.0635 93.6403 16.4106 91.2884C16.0188 89.764 17.0635 88.8058 18.1082 87.7606C20.0671 85.8442 22.8094 86.1491 24.8988 84.7989C25.6288 84.3555 26.4395 84.0617 27.2839 83.9346C28.1284 83.8074 28.9896 83.8496 29.8177 84.0585C33.9992 84.4041 38.1552 83.1426 41.44 80.5307L45.3577 79.0063C48.5353 77.8303 51.713 76.5673 54.9777 75.6091C59.3306 74.3025 63.6835 73.3008 68.0365 71.9941C71.6494 70.9053 75.2188 69.468 78.8753 68.3356C80.8127 67.8931 82.6423 67.068 84.2568 65.9088C85.8713 64.7496 87.2383 63.2795 88.2777 61.5848C88.7279 61.3258 89.1384 61.0031 89.4965 60.6267C91.9341 57.3166 94.3283 53.9629 96.7224 50.6529C97.8977 49.0849 99.16 47.4735 96.1565 46.2975C95.9388 46.2975 95.8953 45.8184 95.7212 45.5571C94.0235 43.423 91.8471 41.7244 89.9753 39.7209C88.1035 37.7174 88.1035 35.3655 85.6224 34.9736C85.6224 34.9736 85.6224 34.6687 85.6224 34.538C85.2511 32.7691 84.6511 31.0561 83.8377 29.4423C82.6624 27.6566 82.793 25.3918 81.5741 23.6061C80.6165 20.1653 81.5741 16.2455 78.9624 13.1967C78.7447 12.7612 78.5706 12.3692 78.9624 11.9772C79.7132 10.8737 80.1082 9.56655 80.0941 8.23164C80.3553 6.44594 79.6153 4.48602 80.7471 2.78743C81.4157 1.97542 81.892 1.02244 82.14 0C83.2881 0.00658482 84.4302 0.167728 85.5353 0.47909C85.6357 0.785564 85.8494 1.04202 86.1327 1.19588C86.4159 1.34975 86.7473 1.38936 87.0588 1.30661C89.7577 1.95991 91.4118 4.48602 94.3718 4.7909C96.0393 5.17362 97.6196 5.86814 99.0294 6.83792C99.1363 6.99968 99.2878 7.12693 99.4655 7.20424C99.6432 7.28155 99.8395 7.30559 100.031 7.27346C100.215 7.62629 100.468 7.9389 100.774 8.19312C101.081 8.44733 101.435 8.63808 101.815 8.75428C102.816 9.23337 104.209 9.0156 104.384 10.8449C104.384 11.6288 105.907 12.2821 106.778 11.8901C108.195 11.4925 109.659 11.2874 111.131 11.2804C112.828 11.2804 114.047 9.75601 115.484 9.93023C118.922 10.2787 122.361 10.8449 125.756 11.2804H127.106C127.454 11.7595 127.846 12.1079 128.455 11.5853C128.847 11.8901 129.239 12.5434 129.631 12.4999C132.329 12.4999 134.332 14.1549 136.682 14.9824C139.554 16.0388 142.156 17.7197 144.3 19.904C146.346 21.8639 149.306 22.7785 150.568 25.6531C150.568 26.0015 151.395 26.1757 151.831 26.4371C154.367 30.7843 155.787 35.6922 155.966 40.7226C156.009 41.3856 155.859 42.0468 155.535 42.6265C155.21 43.2061 154.725 43.6794 154.138 43.9892C153.528 44.3811 153.093 44.5989 153.528 45.6878C153.964 46.7766 152.919 48.5187 151.7 49.7382C153.039 49.7737 154.367 49.49 155.574 48.9107C158.842 47.4827 162.505 47.2363 165.934 48.2139C168.035 48.8591 170.222 49.1822 172.42 49.172C176.188 49.4272 179.857 50.4971 183.172 52.3079C185.48 53.5143 187.263 55.5303 188.178 57.9699C188.613 59.1894 188.178 60.0605 187.742 61.0622C186.476 62.7932 184.896 64.2706 183.085 65.4175C181.822 66.1144 180.168 66.8548 180.734 69.0761C180.734 70.0342 179.951 70.3827 178.906 70.3391C174.553 70.3391 170.2 70.3391 165.586 70.3391C163.863 70.6786 162.117 70.8825 160.362 70.9489C156.88 70.7896 153.395 71.2015 150.046 72.1684C149.262 72.1684 148.522 72.1684 148.609 73.3008H147.391C146.564 72.5168 145.824 72.9959 145.084 73.3008H144.213C143.299 73.3008 142.298 72.9959 141.471 73.6927L140.6 73.9105C138.922 73.8493 137.258 74.2245 135.768 74.9993C134.636 75.522 133.461 76.3495 132.242 75.9575C131.558 75.8235 130.853 75.8317 130.171 75.9815C129.49 76.1314 128.847 76.4197 128.281 76.8286C124.668 78.7885 120.359 77.8303 117.138 80.1822C116.398 79.3547 118.008 78.8321 117.138 78.5707C116.72 78.5594 116.305 78.6393 115.922 78.8048C115.539 78.9703 115.196 79.2174 114.918 79.5289C114.134 80.4436 115.875 80.3129 115.832 81.0969C114.265 81.9244 111.74 81.0969 111.044 82.055C108.954 84.494 105.82 83.8843 103.513 85.5829C102.033 86.7153 100.596 86.7153 100.684 89.372C100.865 93.1506 100.498 96.9354 99.5953 100.609V101.001V101.915C99.5953 102.264 99.813 102.612 99.5953 102.917C97.7932 108.11 96.567 113.484 95.9389 118.945C95.878 119.446 95.7307 119.932 95.5035 120.382C94.2097 123.105 93.5263 126.078 93.5012 129.093C95.5991 128.247 97.8951 128.021 100.118 128.44C104.53 127.824 108.993 127.663 113.438 127.961C115.703 127.937 117.905 128.708 119.662 130.138C120.359 130.922 122.1 132.098 123.275 131.358C123.969 131.019 124.561 130.502 124.989 129.859C125.418 129.216 125.668 128.471 125.713 127.699C125.706 124.314 126.16 120.944 127.062 117.682C127.998 115.602 128.182 113.262 127.585 111.062C128.499 110.104 127.585 108.928 127.976 107.882V107.447C128.253 105.475 128.18 103.47 127.759 101.524C127.498 98.649 126.279 97.1681 123.406 97.1681C121.347 96.9194 119.258 97.1649 117.313 97.8844C115.367 98.604 113.621 99.7767 112.219 101.306L111.261 101.828C110.173 101.219 111.261 100.565 111.261 99.9556L111.696 99.0845C113.078 97.082 114.068 94.8357 114.613 92.4644C114.912 91.1693 115.487 89.9541 116.298 88.9018C117.109 87.8495 118.138 86.9848 119.314 86.3668C122.602 84.4705 126.315 83.4367 130.109 83.3616C131.285 83.3616 132.46 83.3616 133.592 83.3616C135.681 83.3616 136.856 84.9296 138.598 85.4087C141.633 86.5163 144.25 88.5405 146.085 91.2013C148.033 93.4071 149.513 95.9851 150.438 98.7796C151.526 101.682 152.313 104.688 152.788 107.752C152.788 108.274 153.006 108.666 153.224 109.058V111.759C152.919 112.673 153.224 113.37 153.833 114.111V114.546C153.219 115.36 152.828 116.321 152.701 117.333C152.179 119.598 153.485 121.95 152.701 124.128C151.969 126.099 151.387 128.123 150.96 130.182C150.307 132.05 149.912 133.999 149.785 135.974C149.088 138.544 146.738 140.809 148.174 143.814C148.174 143.814 147.956 144.206 147.913 144.38C146.955 147.69 144.779 150.826 146.868 154.441C146.041 156.096 144.518 157.621 144.648 159.45C144.779 161.279 143.255 163.326 142.602 165.286C142.298 166.157 141.34 166.854 141.732 167.986L140.774 168.901C139.468 170.338 137.466 171.34 137.814 173.823C137.814 174.171 137.292 174.955 137.031 174.955C135.115 174.955 135.464 176.305 135.289 177.394C135.252 177.522 135.252 177.658 135.289 177.786L134.593 178.483C133.865 179.365 133.032 180.155 132.112 180.835C131.154 181.357 130.98 181.662 131.589 182.577C132.199 183.491 131.328 186.932 130.501 186.932C128.934 186.932 128.804 188.761 127.541 189.241C127.019 189.458 127.019 190.068 127.759 190.373C128.499 190.678 128.847 190.373 129.065 191.07C129.282 191.767 127.498 190.721 127.324 192.072C132.462 192.722 137.371 194.589 141.645 197.516C142.348 198.009 142.926 198.66 143.334 199.416C143.742 200.172 143.968 201.012 143.995 201.871C143.972 203.683 143.798 205.489 143.473 207.272C142.211 207.577 143.081 208.709 142.602 209.449C140.121 213.805 136.856 217.202 134.724 221.601C134.158 222.733 131.851 222.864 132.852 224.954C132.852 224.954 132.286 225.346 131.894 225.303C131.502 225.259 130.936 225.303 130.719 226.087C130.501 226.871 129.282 227.829 128.499 228.7C127.715 229.571 127.759 229.092 128.194 229.658C128.629 230.224 128.194 231.313 127.541 232.054C127.449 232.18 127.4 232.333 127.4 232.489C127.4 232.646 127.449 232.798 127.541 232.925C125.24 235.367 123.619 238.371 122.84 241.636C121.316 243.857 118.487 244.946 117.094 247.08C117.704 248.038 118.444 247.515 119.009 247.733C119.009 248.865 117.965 249.301 117.573 250.172C115.592 254.262 112.877 257.952 109.564 261.06C108.562 262.149 106.952 262.715 107.126 264.588L105.907 265.503C105.515 265.503 104.949 265.503 104.732 265.851C102.55 269.416 101.237 273.444 100.901 277.611C100.597 280.069 100.819 282.563 101.554 284.928C102.338 287.018 104.819 289.283 106.734 288.325C108.251 287.549 109.485 286.315 110.26 284.797C110.739 284.797 110.956 284.362 111.261 284.013C112.317 282.355 113.641 280.883 115.179 279.658C117.442 278.351 117.747 275.302 120.402 274.606C120.402 274.606 120.62 274.344 120.402 274.257C119.967 272.341 122.971 272.515 122.579 270.642C123.754 270.642 124.102 269.51 124.189 268.595C124.276 267.681 124.451 267.681 125.06 268.029C126.54 269.074 125.452 270.337 125.365 271.557L124.973 271.818C125.234 271.818 125.278 271.818 124.973 271.383C125.713 271.688 125.756 271.034 126.061 270.642C128.673 267.942 129.935 264.196 132.721 261.932C134.308 260.351 135.539 258.451 136.334 256.357C137.161 254.44 137.771 254.135 139.555 255.181C140.426 255.66 141.34 254.702 142.211 255.181C142.274 254.982 142.274 254.769 142.211 254.571C141.862 252.568 143.212 249.519 144.822 249.257C146.433 248.996 146.041 247.864 145.867 247.036C145.802 246.113 146.033 245.193 146.526 244.41C147.019 243.627 147.749 243.021 148.609 242.681C149.043 242.621 149.446 242.424 149.76 242.118C150.073 241.813 150.28 241.414 150.351 240.982C150.837 239.077 151.795 237.324 153.136 235.886C153.141 237.944 152.878 239.994 152.353 241.984C150.268 246.795 147.899 251.478 145.258 256.008C144.735 256.966 144.039 257.707 144.431 258.665C145.519 259.057 144.822 256.662 146.346 257.663C146.467 256.742 146.732 255.846 147.129 255.007C147.739 252.742 149.611 251.261 150.394 248.996C150.873 247.733 151.178 244.641 154.138 245.294C154.138 245.294 154.138 245.033 154.138 244.902C153.006 243.944 152.919 243.9 153.659 242.507C154.191 240.846 155.134 239.348 156.401 238.151C156.562 237.996 156.682 237.804 156.751 237.591C156.819 237.378 156.834 237.152 156.793 236.932C156.358 234.667 158.36 233.012 158.36 230.878C158.36 230.878 158.752 230.878 158.926 230.878C158.926 231.749 157.838 233.186 159.971 233.273C160.232 233.273 160.449 233.709 159.971 234.101C159.492 234.493 159.448 235.843 159.274 236.758C158.491 236.758 157.315 236.54 157.968 237.89C159.1 240.242 158.404 241.2 155.922 241.244C155.356 241.244 154.878 241.244 154.791 242.028C154.746 242.131 154.723 242.242 154.723 242.354C154.723 242.466 154.746 242.578 154.791 242.681C155.025 242.802 155.296 242.833 155.553 242.769C155.809 242.705 156.033 242.55 156.184 242.332C156.287 242.18 156.427 242.055 156.59 241.968C156.753 241.882 156.935 241.837 157.119 241.837C157.304 241.837 157.486 241.882 157.649 241.968C157.812 242.055 157.952 242.18 158.055 242.332C158.491 242.768 158.055 243.552 158.055 244.205C158.055 244.859 156.662 244.946 155.922 245.076C155.182 245.207 154.791 244.641 154.747 245.512C154.704 246.383 154.138 246.557 154.965 247.036C155.792 247.515 156.532 247.646 156.14 248.648C155.748 249.649 154.965 248.996 154.355 249.257L153.528 249.606C153.84 249.873 154.203 250.073 154.596 250.194C154.988 250.314 155.4 250.354 155.808 250.309C156.216 250.264 156.611 250.136 156.967 249.933C157.324 249.729 157.635 249.455 157.881 249.127C158.708 248.212 157.315 248.038 157.881 247.733C158.502 247.416 159.032 246.946 159.421 246.367C159.81 245.787 160.044 245.118 160.101 244.423C160.096 243.03 160.424 241.656 161.059 240.416C162.675 238.438 163.915 236.179 164.715 233.752C164.933 233.273 166.065 232.838 165.499 232.402C164.149 231.226 165.499 230.704 165.934 230.094C166.359 229.388 166.681 228.625 166.892 227.829C167.24 226.653 166.892 224.65 169.286 224.258C168.938 226 167.632 227.176 167.327 228.613C166.326 233.317 163.801 237.324 162.582 241.984C161.929 244.423 159.579 246.078 159.666 248.691C159.56 250.605 158.911 252.448 157.794 254.005C157.533 254.527 157.054 254.876 156.967 255.529C156.326 258.696 154.971 261.675 153.006 264.24C152.755 264.513 152.616 264.871 152.616 265.242C152.616 265.613 152.755 265.97 153.006 266.243C153.659 266.766 154.312 266.243 154.791 265.634C155.269 265.024 155.444 263.412 156.184 265.634C156.451 265.73 156.743 265.73 157.011 265.634C157.066 265.585 157.111 265.524 157.141 265.457C157.172 265.389 157.187 265.316 157.187 265.242C157.187 265.167 157.172 265.094 157.141 265.027C157.111 264.959 157.066 264.899 157.011 264.85C156.532 264.283 156.706 263.848 157.011 263.282C159.056 260.146 160.624 256.792 162.365 253.482C164.454 249.388 165.934 245.033 167.719 240.852C168.78 239.303 169.466 237.529 169.721 235.669C169.854 234.727 170.103 233.806 170.461 232.925C170.94 230.268 173.378 228.308 173.247 225.39C173.247 224.824 173.944 225.172 174.335 225.39L174.945 225.651C174.945 225.651 174.945 225.651 174.945 225.913C174.945 226.174 174.945 226.305 175.38 226.174C175.989 226.74 176.164 227.176 175.075 227.263C173.987 227.35 173.421 227.263 174.509 228.221C174.858 228.613 174.509 229.092 174.509 229.441C173.552 231.88 172.464 234.275 171.549 236.714C171.332 237.367 170.679 238.151 170.809 238.456C171.462 240.155 169.982 239.719 168.981 240.155C170.244 240.372 170.94 240.764 170.113 241.81C169.197 243.095 168.627 244.595 168.459 246.165C168.334 248.22 167.486 250.164 166.065 251.653C165.664 252.028 165.353 252.49 165.157 253.003C164.961 253.516 164.884 254.067 164.933 254.615C164.933 256.095 163.496 256.574 162.713 257.576H162.104L162.365 257.881L163.018 258.709L162.669 258.97C160.928 259.493 162.669 260.189 162.669 260.799L162.191 261.191C161.799 261.191 161.32 261.191 161.32 261.67V262.149C161.163 262.618 161.047 263.098 160.972 263.587C160.972 264.632 161.799 265.067 162.452 265.546C163.105 266.026 163.758 265.851 163.801 265.285C163.801 262.367 165.325 264.85 166.065 264.806L166.761 263.02C168.742 262.657 170.756 262.511 172.768 262.585C173.204 262.585 173.421 262.933 173.508 263.325C173.508 264.85 174.64 264.458 175.598 264.066L175.989 263.674C178.384 264.022 181.126 263.674 182.171 266.853C182.171 266.853 182.475 266.853 182.519 266.853C184.434 265.111 185.044 266.418 185.566 268.116C185.566 268.116 186.088 268.116 186.393 268.116C188.599 268.753 190.616 269.919 192.269 271.513C193.095 272.288 194 272.974 194.968 273.56C199.321 276.348 204.109 278.438 208.375 281.4C210.108 282.957 212.318 283.878 214.644 284.013C215.079 285.015 216.08 285.102 216.951 285.407C217.9 286.127 219.002 286.619 220.172 286.844H220.607C222.217 287.311 223.801 287.863 225.352 288.499C229.139 290.285 233.753 289.806 237.192 292.593C237.49 292.684 237.808 292.684 238.106 292.593C240.631 292.027 242.851 293.682 245.332 293.508H244.592C244.592 293.508 244.592 293.508 244.809 293.508C245.027 293.508 245.332 293.508 245.288 293.116C245.854 293.421 246.072 293.116 246.246 292.593C246.963 291.215 247.504 289.751 247.856 288.238C248.331 286.482 248.973 284.776 249.772 283.142C250.773 280.006 249.772 276.827 250.686 273.647C251.732 270.017 252.331 266.273 252.471 262.498C252.471 259.536 253.036 256.618 252.906 253.526C252.441 247.615 251.332 241.773 249.598 236.104C248.684 233.927 247.857 231.749 246.899 229.658C245.01 225.545 242.367 221.822 239.107 218.683C237.291 216.503 234.816 214.975 232.055 214.327C229.401 214.091 226.777 213.595 224.22 212.847C223.393 212.498 223.001 213.108 223.088 214.197C222.218 212.934 221.042 213.761 219.954 213.761C219.398 213.556 218.805 213.467 218.213 213.5C216.08 214.023 213.86 212.498 211.64 213.5C210.769 213.848 209.072 212.411 207.809 213.761C206.199 214.197 205.067 212.89 203.456 212.672C201.394 212.204 199.48 211.231 197.885 209.841C195.747 205.253 194.154 200.429 193.14 195.469C192.487 196.601 191.268 196.558 190.702 197.516C189.309 199.824 187.655 201.871 186.349 204.223C184.952 206.25 183.784 208.427 182.867 210.712C182.867 211.148 182.214 211.453 182.606 212.019C182.155 212.237 181.773 212.577 181.504 213C181.235 213.423 181.089 213.913 181.082 214.415C181.082 215.982 179.124 215.939 178.775 216.941C178.427 217.942 179.776 218.857 179.036 219.641C178.296 220.425 178.296 221.732 177.556 222.211C176.816 222.69 177.556 225.129 175.641 224.737C175.587 224.71 175.527 224.696 175.467 224.696C175.407 224.696 175.347 224.71 175.293 224.737C175.118 224.47 175.004 224.167 174.959 223.851C174.914 223.535 174.939 223.213 175.032 222.907C175.602 221.152 176.286 219.435 177.078 217.768C178.373 214.789 179.826 211.882 181.431 209.057C182.824 206.183 182.998 202.655 186.436 201.044C186.483 200.917 186.483 200.778 186.436 200.652C186.436 197.124 189.353 195.207 191.225 192.725C191.704 192.159 192.922 191.636 192.226 190.939C191.529 190.242 191.225 191.723 190.528 191.854H189.875C189.875 190.765 190.615 190.155 190.876 189.284C190.267 189.632 190.093 190.286 189.571 190.721C184.636 195.001 180.572 200.191 177.6 206.009C176.033 208.709 175.032 211.627 173.595 214.371C173.291 214.981 173.16 216.026 172.202 214.371C171.724 213.587 172.202 213.848 172.202 213.674C173.095 212.222 173.853 210.691 174.466 209.101C175.987 205.695 177.702 202.38 179.602 199.171C180.514 196.414 182.1 193.928 184.216 191.941C182.86 192.13 181.62 192.812 180.734 193.857C179.515 194.946 178.906 196.601 177.382 197.429L176.86 196.906C176.86 195.991 175.859 195.164 176.86 194.075C177.121 193.77 176.425 193.378 175.989 193.77C175.554 194.162 175.38 194.598 174.684 194.423C174.684 193.291 175.641 192.899 176.251 192.159C175.728 192.159 175.38 192.725 174.771 191.897C174.161 191.07 175.554 190.242 175.336 189.284C175.119 188.326 174.509 190.068 174.031 189.284C173.552 188.5 174.031 188.761 174.031 188.544C177.6 184.842 181.082 181.052 184.913 177.568C186.412 176.4 187.632 174.912 188.482 173.213C186.432 174.719 184.536 176.426 182.824 178.309C182.466 178.728 182.003 179.045 181.484 179.229C180.964 179.412 180.405 179.455 179.864 179.354C182.906 176.934 185.732 174.252 188.308 171.34C188.855 171.02 189.283 170.531 189.527 169.946L190.006 169.511C190.625 169.125 191.221 168.703 191.791 168.248C197.145 162.891 198.233 155.748 199.931 148.866C200.496 148.866 200.584 148.169 200.758 147.647C201.976 143.291 203.805 139.285 204.675 134.886C205.48 133.765 206.043 132.49 206.329 131.14C207.175 126.992 208.504 122.957 210.291 119.119C211.988 115.286 213.164 111.323 214.644 107.447C215.253 106.271 215.688 105.008 216.254 103.832C216.988 102.505 217.293 100.983 217.125 99.4765C218.039 99.4765 218.082 98.9103 218.3 98.2134C218.822 96.4713 219.519 94.7291 220.085 92.987C221.638 89.5308 222.975 85.9816 224.089 82.3599C224.069 81.8585 224.169 81.3595 224.381 80.9048C224.593 80.4501 224.911 80.0529 225.308 79.7467C226.788 78.5272 226.484 76.3495 227.18 74.6509C229.594 69.0674 231.347 63.2206 232.404 57.2295C233.661 55.8303 234.356 54.0152 234.356 52.1337C234.356 50.2522 233.661 48.4371 232.404 47.0379C231.515 46.3262 230.796 45.4252 230.299 44.4006C229.802 43.376 229.54 42.2535 229.531 41.1146C229.48 40.746 229.574 40.3722 229.793 40.0716C230.013 39.7711 230.34 39.5673 230.706 39.5031C232.754 38.3338 234.618 36.866 236.234 35.1478C237.424 34.0961 238.4 32.8243 239.107 31.4022C239.119 31.2718 239.119 31.1406 239.107 31.0102C241.806 31.8813 243.982 29.1809 246.594 29.8342C246.986 29.9852 247.421 29.9852 247.813 29.8342C248.455 29.398 249.213 29.1647 249.989 29.1647C250.766 29.1647 251.524 29.398 252.166 29.8342C253.167 30.7053 254.212 29.8342 255.213 29.268C256.214 28.7018 256.998 28.0921 258.086 29.268C259.174 30.444 258.956 31.0973 258.695 32.2732C258.58 33.7227 258.58 35.1791 258.695 36.6286C258.654 36.7709 258.654 36.9219 258.695 37.0641C258.635 37.218 258.609 37.3832 258.619 37.5481C258.629 37.7131 258.675 37.8739 258.754 38.0192C258.833 38.1645 258.942 38.2907 259.075 38.3891C259.208 38.4874 259.361 38.5555 259.522 38.5885C259.522 39.0241 257.955 39.4596 259.522 39.8951C259.522 41.0275 259.827 42.1164 258.869 43.0745C258.657 43.3654 258.543 43.7162 258.543 44.0763C258.543 44.4364 258.657 44.7872 258.869 45.078C260.088 46.6024 259.131 47.7783 258.521 49.0849C257.259 51.9159 254.691 54.1372 254.647 57.5343C254.647 57.7521 254.647 58.057 254.647 58.1876C252.684 60.8921 251.508 64.0883 251.252 67.421C251.252 68.6841 251.252 69.1632 252.34 69.2067C253.428 69.2503 254.386 70.2956 254.995 71.2973C255.605 72.299 256.04 73.0394 256.649 73.867C257.259 74.6945 257.259 74.4767 257.564 74.1283C257.677 73.9775 257.738 73.7941 257.738 73.6056C257.738 73.4172 257.677 73.2338 257.564 73.083C257.128 72.4732 255.692 72.2119 256.345 71.2973C256.998 70.3827 257.781 72.0377 258.695 71.6893H259.131C259.131 70.9053 258.521 71.036 258.173 70.7311C257.825 70.4262 256.606 70.0342 257.172 69.1632C257.738 68.2921 258.304 67.6823 259.218 69.1632C259.653 69.9036 261.438 69.8165 260.436 71.4279C260.436 71.6893 260.436 72.1684 261.133 72.4297C263.73 73.8603 265.987 75.8364 267.749 78.2223C268.185 78.7885 268.62 79.1369 269.447 78.5707C267.174 76.0544 265.664 72.9423 265.094 69.5987C265.033 69.0885 264.803 68.6133 264.441 68.2485C263.048 66.6371 263.919 66.2015 265.529 66.2015V66.4628C265.181 65.9837 265.791 65.1998 265.181 64.8078C264.572 64.4158 264.137 63.9803 264.789 63.4576C265.442 62.935 265.747 63.719 266.052 64.1545C267.706 66.5935 270.1 68.5099 271.841 70.7747C274.19 73.5433 277.178 75.6962 280.547 77.0464C282.377 78.1269 284.474 78.6703 286.598 78.6143C288.07 78.5687 289.539 78.7598 290.951 79.1805C292.428 79.9171 294.044 80.3364 295.693 80.4114C297.342 80.4864 298.989 80.2155 300.527 79.616L301.398 79.9645C301.398 80.1822 301.398 80.5307 301.833 80.2693H302.312C302.66 80.792 303.095 81.0969 303.705 80.6178C307.1 80.9662 308.754 83.5359 310.582 85.8878C310.87 86.6528 310.902 87.4903 310.674 88.2752C310.447 89.0602 309.972 89.7504 309.32 90.2431C307.537 91.9939 305.566 93.5422 303.444 94.8598C301.23 95.8231 299.384 97.4719 298.177 99.5636C294.197 101.473 290.481 103.888 287.12 106.75C283.812 109.233 280.547 111.759 277.369 114.415C274.192 117.072 272.102 119.119 269.447 121.471C266.792 123.823 264.049 126.306 261.568 129.006C260.175 130.53 257.955 131.271 257.215 133.361C256.475 133.361 255.822 133.753 256.127 134.755H255.909C255.266 134.953 254.661 135.262 254.125 135.67C250.12 140.025 245.158 143.64 241.066 148.039C237.714 151.567 233.622 154.311 230.488 158.056C227.505 160.373 224.776 163.001 222.348 165.896C219.338 168.433 217.055 171.725 215.732 175.434C215.079 177.699 215.166 178.396 217.473 179.789C219.78 181.183 221.565 180.965 223.001 182.533C223.232 182.808 223.518 183.031 223.84 183.189C224.163 183.347 224.514 183.435 224.873 183.448C230.17 184.411 235.157 186.637 239.412 189.937C243.693 192.792 247.498 196.305 250.686 200.347C253.442 203.482 255.905 206.865 258.042 210.451C258.747 212.145 259.818 213.662 261.176 214.894C261.137 214.951 261.116 215.02 261.116 215.09C261.116 215.16 261.137 215.228 261.176 215.286C261.141 215.561 261.188 215.841 261.312 216.089C261.436 216.337 261.631 216.543 261.873 216.679L263.266 219.815C263.962 222.385 265.094 224.824 265.791 227.35C266.269 229.049 267.227 230.573 267.619 232.315C268.315 235.364 269.447 238.325 270.405 241.331C270.455 243.858 270.702 246.377 271.145 248.865C271.535 251.137 271.666 253.446 271.536 255.747C271.477 259.1 271.201 262.447 270.709 265.764C270.318 269.031 270.144 272.341 269.578 275.607C269.273 277.35 269.578 279.527 266.966 280.224C266.839 281.166 267.007 282.124 267.445 282.968C268.011 282.968 267.836 283.403 267.793 283.491C266.095 285.233 267.401 288.194 265.181 289.806C264.757 290.115 264.423 290.533 264.216 291.016C264.009 291.499 263.937 292.029 264.006 292.55C264.006 293.072 263.527 293.769 264.572 293.856H264.964C263.353 294.64 264.964 295.86 264.572 296.818C264.18 297.776 264.833 298.255 265.616 298.299C267.575 298.299 269.491 298.299 271.449 298.299H272.32C273.765 298.481 275.228 298.481 276.673 298.299C279.198 299.693 282.114 298.996 284.726 299.91C284.726 300.651 283.202 300.912 283.899 301.522C284.595 302.132 285.335 303.046 286.467 302.959C286.855 302.889 287.225 302.741 287.554 302.524C287.883 302.307 288.165 302.025 288.382 301.696C288.382 301.696 287.642 300.607 288.644 301.086C291.865 302.567 295.391 303.09 298.612 304.614C298.77 304.892 298.991 305.129 299.258 305.306C299.524 305.483 299.828 305.595 300.145 305.633C300.463 305.671 300.785 305.634 301.085 305.525C301.386 305.416 301.657 305.239 301.876 305.006C301.884 305.122 301.884 305.238 301.876 305.354C302.573 306.356 303.661 305.354 304.575 306.008C308.04 308.427 311.818 310.361 315.806 311.757C320.352 314 324.718 316.592 328.865 319.509C332.11 321.835 335.712 323.615 339.529 324.779C342.272 325.346 343.882 327.741 346.842 328.177C346.805 328.305 346.805 328.441 346.842 328.569C349.226 330.845 351.725 332.996 354.329 335.014L354.678 335.537C354.678 336.19 354.678 336.408 355.461 336.365L359.814 341.548C359.814 342.114 360.162 342.244 360.598 342.332V343.29C360.598 343.551 360.293 343.943 360.598 344.074C362.165 346.034 362.034 349.039 364.036 350.563C365.255 351.478 364.036 352.872 365.299 353.612C366.431 355.311 366.387 357.575 368.52 358.838C369.565 359.448 369.521 361.756 369.391 362.889C368.999 365.371 370.087 367.767 369.391 370.162C370.089 371.695 370.473 373.352 370.518 375.035C370.562 376.719 370.268 378.395 369.652 379.962C369.554 380.159 369.404 380.325 369.217 380.441C365.734 381.486 363.384 384.796 359.684 385.319C359.149 385.346 358.614 385.264 358.113 385.077C357.611 384.89 357.153 384.601 356.767 384.23C356.767 381.748 354.286 382.183 352.937 381.356C350.194 380.61 347.275 380.873 344.709 382.096C341.425 383.344 338.007 384.206 334.524 384.666C333.827 384.666 333.174 385.45 332.478 385.45C331.502 385.628 330.496 385.411 329.68 384.848C328.864 384.284 328.305 383.42 328.125 382.444C328.125 381.051 326.862 381.356 326.645 381.704C325.644 383.315 323.946 383.054 322.553 383.62C320.783 384.124 319.074 384.826 317.46 385.711C315.869 386.507 314.101 386.882 312.324 386.8C307.872 387.857 303.317 388.412 298.742 388.455C296.367 388.242 293.973 388.404 291.647 388.934C290.627 389.307 289.694 389.885 288.905 390.633C286.859 392.2 284.552 393.376 283.202 395.902C282.114 395.902 281.461 393.986 280.155 395.38C279.727 395.381 279.305 395.48 278.92 395.669C278.536 395.857 278.199 396.131 277.935 396.469C274.92 396.655 271.966 397.408 269.229 398.69C268.446 398.69 267.445 398.69 266.792 399.474C266.014 398.824 265.047 398.444 264.035 398.389C263.023 398.334 262.02 398.607 261.176 399.169C260.635 399.415 260.065 399.59 259.479 399.692C256.258 400.388 246.42 399.692 242.328 402C246.673 397.521 251.265 393.29 256.084 389.326ZM250.512 111.454C251.861 111.454 252.34 110.278 252.775 109.189C254.684 108.281 256.221 106.743 257.128 104.834C258.216 104.834 258.739 103.919 259.131 103.309C260.524 101.262 263.484 100.478 263.832 97.6472C265.355 97.6472 265.66 96.3406 266.531 95.6438C267.401 94.9469 267.619 95.6438 267.401 94.8598C267.184 94.0758 266.531 94.5549 266.052 94.4243C265.573 94.2936 263.701 94.4243 263.266 92.6821C262.795 91.8551 262.087 91.1886 261.233 90.7692C260.38 90.3498 259.419 90.1969 258.478 90.3302C258.478 91.0271 260.306 91.1577 259.087 92.1159C257.868 93.0741 257.738 91.8111 257.389 91.3755C256.401 89.7684 254.849 88.588 253.036 88.0654C252.676 87.9623 252.366 87.7297 252.166 87.4121C251.513 85.5393 249.467 84.5811 249.119 82.5777C249.119 81.3582 247.944 81.8808 247.334 81.7937C246.725 81.7066 246.159 82.4906 246.246 83.1439C246.246 84.886 245.201 86.062 244.548 87.4992C242.294 91.4832 240.567 95.7437 239.412 100.173C238.904 102.763 238.04 105.269 236.844 107.621C235.842 109.668 233.971 111.672 234.58 114.023C234.803 115.035 234.747 116.089 234.417 117.071C234.088 118.053 233.497 118.927 232.708 119.598C231.365 121.189 230.585 123.18 230.488 125.26C230.451 126.076 230.212 126.869 229.792 127.569C228.901 129.069 228.448 130.789 228.486 132.534C230.564 130.892 232.422 128.989 234.014 126.872C237.584 122.516 241.719 118.161 245.419 113.806C245.724 113.448 246.149 113.215 246.615 113.15C247.08 113.086 247.553 113.195 247.944 113.457C246.185 115.152 244.714 117.124 243.591 119.293C245.758 117.287 247.753 115.101 249.554 112.76C249.946 112.368 250.207 111.889 250.512 111.454ZM112.349 354.962C112.296 353.754 112.106 352.556 111.784 351.391C111.021 346.97 109.199 342.801 106.473 339.239C105.776 338.15 104.427 337.976 103.208 339.239C98.8553 343.595 94.1541 347.95 90.1494 352.523C89.5835 353.176 88.8871 353.699 89.1918 354.57C89.3393 354.924 89.5968 355.221 89.926 355.417C90.2553 355.613 90.6388 355.698 91.02 355.659C94.0671 355.659 96.5483 357.75 99.7259 357.488C102.904 357.227 106.56 358.229 110.086 357.793C112.088 357.532 112.524 356.617 112.349 354.962ZM184.869 323.647C185.305 322.732 185.784 322.297 186.306 323.647C186.51 324.489 186.627 325.35 186.654 326.217C186.959 328.394 188.047 328.961 189.875 327.654C190.647 327.012 191.549 326.547 192.519 326.291C193.489 326.036 194.503 325.995 195.491 326.173C195.787 326.253 196.101 326.246 196.394 326.154C196.687 326.061 196.948 325.886 197.145 325.65C198.233 323.691 200.061 324.518 201.498 324.431C201.977 324.431 202.412 324.91 202.978 324.692C203.544 324.475 204.327 324.692 204.371 323.908C204.414 323.124 203.761 323.299 203.326 323.037C200.401 321.604 197.617 319.898 195.012 317.941C190.853 314.504 186.493 311.319 181.953 308.403C182.911 310.189 181.344 312.41 182.824 314.109C183.694 313.673 183.085 312.672 183.868 312.41C185.435 314.675 185.435 315.111 183.564 317.593C183.499 317.721 183.465 317.863 183.465 318.007C183.465 318.151 183.499 318.292 183.564 318.421C184.086 320.119 183.607 321.948 184.869 323.647ZM92.1518 177.22C92.1518 178.178 92.5871 179.746 92.7612 181.575C92.7612 181.967 92.7612 182.446 93.0659 182.62C93.3706 182.795 93.6753 182.228 93.9365 181.924C98.4756 176.374 102.677 170.557 106.516 164.502C108.345 161.41 108.345 161.366 105.08 161.41C102.446 161.084 99.7718 161.337 97.2447 162.15C95.9388 162.76 93.7188 162.15 93.3706 164.589C92.7272 168.773 92.3203 172.99 92.1518 177.22ZM199.191 353.917C195.674 353.544 192.121 354.084 188.874 355.485C192.705 357.14 195.882 355.006 199.191 353.917ZM155.661 251.827C154.573 251.827 152.135 254.876 152.135 256.182C152.135 256.618 151.831 257.315 152.658 257.402C153.485 257.489 153.485 257.097 153.789 256.618C154.66 255.355 154.704 253.526 156.532 252.959C157.054 252.959 156.532 252.393 156.532 252.045C156.532 251.696 155.966 251.827 155.618 251.827H155.661ZM282.637 309.231C284.465 309.797 286.119 310.624 287.86 311.321C287.982 311.383 288.116 311.415 288.252 311.415C288.388 311.415 288.522 311.383 288.644 311.321C288.644 310.929 288.644 310.581 288.208 310.45C286.424 309.753 284.769 308.577 282.637 309.231ZM206.939 351.826C206.048 351.49 205.085 351.394 204.146 351.547C203.206 351.699 202.323 352.096 201.585 352.697C203.326 352.131 205.241 352.784 206.939 351.826ZM171.549 362.758C169.242 362.323 167.98 363.934 166.282 364.37C167.225 364.517 168.189 364.448 169.101 364.169C170.013 363.89 170.85 363.408 171.549 362.758ZM171.767 236.104L172.115 235.494C172.115 235.146 172.115 235.233 171.767 235.102C171.419 234.972 171.419 235.407 171.419 235.538C171.419 235.669 171.593 235.886 171.767 236.104ZM283.725 394.422V394.03C283.532 394.115 283.355 394.233 283.202 394.378V394.683L283.725 394.422ZM242.285 120.034V120.252V120.034ZM186.828 358.142C186.828 358.142 186.524 358.533 186.567 358.664C186.611 358.795 186.828 359.013 186.959 359.013C187.089 359.013 187.481 359.013 187.351 358.49C187.22 357.967 187.176 358.272 186.828 358.142ZM183.607 317.114C183.507 317.09 183.403 317.09 183.302 317.114H183.607ZM157.489 250.128H157.228H157.489ZM173.726 230.312V230.573V230.312Z" fill="#EEEEEE"/>
</svg>
