<svg width="237" height="288" viewBox="0 0 237 288" fill="none" xmlns="http://www.w3.org/2000/svg">
<g style="mix-blend-mode:difference">
<path d="M46.6285 9.77501C48.2781 11.3865 50.4663 12.3156 52.7612 12.3788C57.3238 13.7118 62.0532 14.3732 66.803 14.3424C67.3106 14.5985 67.6912 14.3424 68.1142 14.0436H69.0023H70.2712C70.6095 14.0436 70.9479 14.0436 71.1594 14.0436C74.9011 13.7083 78.5914 12.9347 82.156 11.7386C85.4682 10.7358 88.705 9.49475 91.8414 8.0249C93.4061 7.04389 95.0816 6.25569 96.8322 5.67719C101.034 4.99238 105.318 4.99238 109.521 5.67719C112.523 6.06136 115.526 6.65896 118.529 7.17119C120.107 7.59598 121.558 8.40171 122.759 9.5189C123.719 10.298 124.572 11.2023 125.296 12.2081C127.351 14.0042 128.947 16.2737 129.949 18.8244C130.75 22.1924 131.134 25.648 131.091 29.1116C131.345 29.9653 131.598 30.7337 130.668 31.502C129.321 32.6468 128.239 34.0744 127.496 35.6852C126.21 37.7753 125.08 39.9582 124.112 42.2161C123.573 44.2626 122.491 46.122 120.982 47.5945C119.84 47.936 118.614 48.064 118.276 49.5153C116.722 50.6889 115.389 52.1347 114.342 53.7839C114.528 53.8488 114.725 53.8733 114.921 53.8559C115.117 53.8385 115.307 53.7795 115.479 53.6827C115.651 53.586 115.8 53.4538 115.918 53.2946C116.035 53.1355 116.118 52.9531 116.161 52.7594C116.372 52.0765 116.838 51.3508 117.43 51.6069C118.022 51.8631 117.43 52.7168 117.43 53.2717C116.541 53.2717 116.838 54.3815 116.245 54.6803C114.384 54.04 113.2 55.2779 112.016 56.2597C109.901 57.8817 108.717 60.5282 105.629 61.1685C103.948 61.5377 102.325 62.1411 100.808 62.9613C103.458 63.1752 105.987 64.1697 108.083 65.8213C109.859 67.7421 112.735 68.4678 113.835 71.2423C114.198 72.3995 114.68 73.5153 115.273 74.5718C116.415 76.3219 117.895 77.9867 117.049 80.4624C116.975 80.7471 116.983 81.0473 117.073 81.3272C117.163 81.6072 117.331 81.8552 117.557 82.0418C116.076 82.3833 116.372 83.3651 116.711 84.3895C115.813 86.6553 115.367 89.0779 115.4 91.518C115.402 92.3511 115.164 93.1668 114.713 93.8646C114.262 94.5625 113.618 95.1119 112.862 95.4451C110.663 96.2561 108.379 96.9391 106.137 97.5794C101.419 98.5424 96.7811 99.8696 92.2644 101.549C90.8686 102.189 89.1769 101.549 88.0349 102.189C85.5489 103.559 83.1856 105.144 80.9717 106.928C78.6618 108.183 76.4924 109.686 74.5007 111.41C73.4856 112.092 72.0899 111.41 71.3708 112.605C69.806 113.373 67.4797 112.904 66.6339 115.379C66.1686 113.672 64.7729 114.739 64.3076 115.123C63.5862 115.837 62.8236 116.507 62.0237 117.129C62.0237 117.129 62.0237 117.812 62.0237 117.855C62.0237 117.898 61.4316 117.855 61.347 117.3C61.2624 116.745 60.4588 116.959 60.1628 116.916C58.3864 116.703 56.9484 117.898 55.2989 118.41C54.5376 118.623 54.876 119.733 54.8337 120.416C54.7914 121.099 53.734 120.886 53.3956 121.441C53.3956 120.587 54.7914 119.733 54.0724 119.05C53.3533 118.367 52.5498 119.648 51.7462 119.947L50.7734 120.416L50.0121 120.63C49.2381 121.112 48.5863 121.769 48.1088 122.55C47.7845 123.025 47.3475 123.411 46.8378 123.672C46.3281 123.933 45.7618 124.061 45.1905 124.044C44.1956 124.036 43.2202 124.323 42.3856 124.869C41.5509 125.416 40.8937 126.198 40.4958 127.118C40.0464 127.933 39.3705 128.598 38.5513 129.03C37.7322 129.463 36.8055 129.644 35.8857 129.551C33.382 129.594 30.9162 130.176 28.6533 131.258H28.2304C27.0038 132.496 25.9888 130.319 24.4661 131.258L25.9888 132.325C25.3968 132.885 24.7756 133.412 24.1278 133.905C24.0028 134.013 23.8517 134.086 23.6898 134.115C23.528 134.145 23.3611 134.131 23.2063 134.075C23.0516 134.019 22.9144 133.922 22.8088 133.794C22.7032 133.667 22.6329 133.514 22.6052 133.35C22.3091 132.582 22.0131 132.71 21.3364 133.051C19.8058 134.225 17.998 134.976 16.0918 135.228C15.119 135.228 14.823 135.954 14.3577 136.466C12.8351 138.003 11.7355 140.436 8.85946 139.027C8.5634 139.027 8.35191 139.027 8.26733 139.369C7.84438 141.418 5.39129 141.418 4.58769 143.125C4.58769 143.125 4.12246 143.125 3.86869 143.125C3.61492 143.125 2.13461 142.186 1.79625 143.125C1.03495 145.387 -0.868305 144.918 -2.4332 145.174C-1.54502 147.692 -3.65975 148.802 -5.01318 149.442C-7.76233 151.193 -10.5115 152.985 -13.4721 154.65C-15.2908 155.717 -16.6442 157.425 -18.8858 157.851C-22.4808 158.577 -22.4385 158.663 -24.7225 162.12C-24.8731 162.271 -25.0439 162.401 -25.23 162.504C-25.9275 163.374 -26.435 164.382 -26.7192 165.464C-27.0035 166.545 -27.0581 167.675 -26.8795 168.779C-26.2444 171.535 -25.4248 174.245 -24.4264 176.889C-24.4264 177.444 -23.9611 178.341 -23.1576 177.999C-22.354 177.658 -20.1123 177.06 -19.6048 176.036C-19.0973 175.011 -17.5747 174.456 -16.3481 174.072C-15.867 173.997 -15.4063 173.822 -14.9947 173.56C-10.1731 170.358 -5.05547 167.541 0.0198784 164.767C2.99541 163.652 5.7466 162.004 8.14045 159.9C8.98634 159.9 9.19781 159.175 9.74763 158.876C10.2975 158.577 10.6358 158.876 10.6358 158.193C12.9197 156.528 16.0495 156.144 17.7413 153.626C20.2382 151.029 23.0859 148.802 26.2002 147.009C27.4418 146.598 28.5615 145.878 29.4569 144.918H29.8799L31.2333 144.576C31.396 144.602 31.5628 144.58 31.7131 144.512C31.8633 144.443 31.9906 144.332 32.0792 144.192C32.6713 144.192 33.348 144.192 33.8556 143.68C34.4957 143.355 35.2188 143.236 35.928 143.338C39.3701 144.223 42.958 144.368 46.4593 143.765L59.1477 146.924C59.7005 147.003 60.2324 147.191 60.7126 147.479C63.1657 149.912 66.3801 151.747 67.9873 154.821C67.3952 155.888 67.9873 156.87 68.241 157.894C68.5026 159.181 68.4987 160.508 68.2294 161.794C67.9602 163.079 67.4314 164.294 66.6761 165.364C66.0457 166.091 65.5854 166.952 65.3292 167.883C65.0729 168.814 65.0274 169.791 65.1958 170.743C65.9149 174.627 63.4195 177.017 61.6854 179.493C59.9513 181.969 58.7248 183.762 57.4559 185.725C56.9907 186.451 55.2566 187.774 57.1599 189.311C55.2989 189.311 53.6917 189.012 53.8186 191.36C53.8186 191.744 53.4802 192.171 53.1842 192.512C51.8295 194.986 50.6835 197.571 49.7583 200.238C51.6127 199.234 53.2857 197.921 54.7068 196.354C58.1326 193.323 61.347 189.951 64.646 186.75C67.0184 183.585 70.1671 181.098 73.7816 179.536C74.1764 179.438 74.5261 179.207 74.7724 178.881C75.0187 178.555 75.1467 178.153 75.1351 177.743C75.1351 175.225 76.7 173.474 77.8842 171.81C79.6862 169.769 80.8746 167.251 81.3101 164.553C81.2772 163.116 81.7408 161.713 82.6212 160.583C83.6363 159.345 82.2828 157.809 83.0864 157.04C83.89 156.272 83.3825 155.76 82.7481 155.29C83.2979 154.223 82.2406 153.626 81.7753 152.644C83.1287 153.583 85.0743 151.064 85.6241 153.882C85.9684 153.436 86.2795 152.965 86.5546 152.473C87.6543 150.253 89.4306 148.205 88.7539 145.387C89.0923 145.387 89.5152 145.387 89.4306 144.79C89.346 144.192 88.8808 144.79 88.5847 144.534L89.0923 143.466C89.5098 143.525 89.9206 143.626 90.3188 143.765C91.9683 144.491 92.7719 143.381 92.7719 142.143C92.7739 141.58 92.9338 141.028 93.2331 140.552C93.5325 140.076 93.9591 139.696 94.4637 139.454C95.138 139.177 95.6854 138.656 95.9984 137.992C96.3114 137.329 96.3674 136.571 96.1555 135.868C96.1555 135.271 95.944 134.374 97.0437 134.588C98.9892 135.057 99.9197 133.35 101.273 132.496C101.644 132.216 102.059 132 102.5 131.856C103.938 131.386 105.291 130.789 105.418 128.953C105.754 129.221 106.144 129.412 106.559 129.515C106.975 129.618 107.408 129.631 107.829 129.551C110.133 129.136 112.467 128.908 114.807 128.868C118.022 128.868 121.067 129.85 124.197 130.234C125.903 130.339 127.552 130.89 128.983 131.833C130.414 132.776 131.578 134.078 132.36 135.612C132.36 139.497 135.32 142.015 136.801 145.302L139.084 143.125L141.368 141.289C142.722 140.649 143.441 138.515 144.583 138.515C146.994 138.515 147.882 137.106 148.812 135.527C150.705 133.302 152.865 131.323 155.241 129.636C161.331 124.599 167.887 120.16 174.02 115.251C175.669 114.478 177.449 114.028 179.264 113.928C179.814 113.928 180.364 113.928 179.899 113.16C179.899 113.715 179.899 113.971 180.618 113.885C182.944 114.355 185.312 113.629 187.554 113.885C192.376 114.654 197.155 115.892 201.934 116.959C203.467 117.201 204.937 117.749 206.258 118.57C207.58 119.39 208.726 120.468 209.632 121.739C210.52 123.02 210.605 124.855 212.127 125.752C211.704 126.862 212.381 127.843 212.127 129.081C211.387 132.196 211.387 135.443 212.127 138.558C211.86 138.879 211.71 139.283 211.703 139.703C211.695 140.122 211.83 140.531 212.085 140.863C213.207 143.815 213.457 147.033 212.804 150.125C212.794 150.632 212.866 151.136 213.015 151.619C212.085 152.217 213.861 152.815 213.015 153.583C212.346 154.424 211.981 155.471 211.981 156.55C211.981 157.628 212.346 158.675 213.015 159.516C213.015 160.839 212.339 162.163 213.396 163.358C213.396 163.358 213.396 163.913 213.396 164.169C213.142 165.876 212.846 167.584 212.508 169.249C212.508 170.273 211.873 170.743 211.028 169.59C210.182 168.438 209.759 169.206 209.759 169.59C209.759 169.974 208.955 170.7 208.49 171.169C208.025 171.639 206.037 172.962 206.925 175.011C207.149 174.675 207.438 174.389 207.775 174.169C208.112 173.949 208.49 173.801 208.886 173.733C209.281 173.665 209.686 173.679 210.076 173.774C210.466 173.869 210.833 174.043 211.154 174.285C212.381 174.84 210.393 175.95 210.562 177.017C209.463 177.53 210.562 178.383 210.562 179.024C208.025 179.024 208.025 179.024 206.798 181.841C206.417 181.841 206.164 182.268 206.417 182.566C206.671 182.865 206.883 182.31 207.136 182.225C208.448 182.225 208.194 180.902 208.955 180.475C208.967 180.906 208.874 181.332 208.685 181.719C208.496 182.105 208.216 182.439 207.87 182.691C207.524 182.943 207.122 183.107 206.7 183.167C206.277 183.227 205.846 183.182 205.445 183.036C205.022 183.036 204.641 182.609 204.43 183.036C204.308 183.512 204.308 184.011 204.43 184.487C204.43 185.085 205.191 184.487 205.487 184.829C205.783 185.17 206.756 183.804 206.587 185.256H205.952C204.007 185.256 203.837 185.256 204.726 187.177V187.561C203.118 187.561 203.288 190.079 201.554 190.079C200.792 190.079 200.158 190.549 200.412 191.317C200.665 192.085 199.989 193.067 200.708 193.494C201.427 193.921 201.892 193.024 202.399 192.598C202.475 192.508 202.569 192.435 202.675 192.386C202.781 192.336 202.896 192.311 203.013 192.311C203.129 192.311 203.245 192.336 203.351 192.386C203.457 192.435 203.551 192.508 203.626 192.598C202.146 196.055 198.255 197.763 197.24 201.775C199.93 202.397 202.709 202.527 205.445 202.159C207.567 201.925 209.709 201.925 211.831 202.159C214.171 202.392 216.391 203.312 218.218 204.806C220.344 206.243 222.392 207.796 224.35 209.458C226.861 210.267 229.11 211.741 230.864 213.727C232.572 215.339 234.155 217.08 235.601 218.935C235.619 219.723 235.853 220.492 236.277 221.154C236.601 221.507 236.828 221.939 236.933 222.408C237.038 222.877 237.019 223.365 236.878 223.824C236.736 224.284 236.477 224.697 236.126 225.022C235.776 225.348 235.347 225.574 234.882 225.679C233.571 225.892 234.205 227.045 233.486 227.514C232.767 227.984 234.036 228.197 234.543 228.454C235.112 228.764 235.662 229.106 236.193 229.478C236.743 231.1 236.87 232.594 235.009 233.747C234.543 233.747 234.247 234.43 233.782 234.6C232.513 235.027 232.682 235.795 233.021 236.863C233.359 237.93 235.22 238.997 234.459 240.704V241.302C232.978 241.771 233.232 242.369 234.205 243.137C234.543 243.394 234.67 243.863 234.924 244.205C234.984 244.587 234.963 244.978 234.862 245.351C234.762 245.724 234.583 246.072 234.339 246.371C234.095 246.669 233.791 246.912 233.447 247.083C233.103 247.255 232.727 247.35 232.344 247.363C229.679 247.747 227.819 249.839 225.281 250.437C224.259 251.081 223.054 251.367 221.855 251.248C219.987 251.045 218.098 251.249 216.314 251.845C213.861 252.528 211.662 250.949 209.209 250.863C206.322 250.488 203.4 251.203 201.004 252.87C199.312 251.803 197.874 253.467 196.267 253.382C195.717 253.382 195.717 253.382 195.167 254.278C195.167 254.492 194.66 254.833 194.533 254.748C192.376 253.937 190.853 255.73 188.992 256.028C186.431 256.336 183.98 257.258 181.844 258.718C181.844 258.718 181.379 259.059 181.294 258.974C178.334 257.266 176.431 260.212 173.935 260.639C172.846 260.047 171.571 259.909 170.382 260.254C168.257 260.881 166.075 261.296 163.869 261.492C162.727 261.492 161.627 262.901 160.316 261.748C159.005 260.596 158.286 260.724 157.483 262.73C157.899 262.592 158.322 262.478 158.751 262.389C159.174 262.389 159.724 261.492 159.978 262.389C160.232 263.285 159.513 263.2 158.878 263.242C158.244 263.285 157.187 263.541 156.933 264.566H156.214C155.875 263.157 154.564 263.541 153.93 263.712C152.901 263.952 151.854 264.109 150.8 264.181L150.081 263.84C149.447 262.047 148.728 262.559 147.924 263.84C147.459 263.84 147.924 262.474 146.951 263.413C143.122 263.837 139.332 264.565 135.616 265.59C135.32 265.59 134.347 264.95 133.459 264.907C131.885 264.817 130.311 265.08 128.849 265.675C128.003 266.06 127.919 265.932 128.088 265.035C128.257 264.139 127.665 264.309 127.157 264.267H122.59C122.59 263.2 123.562 263.626 123.774 262.986C123.605 262.968 123.435 262.968 123.266 262.986C121.701 262.986 120.348 264.181 118.656 263.669C118.191 263.669 117.557 263.669 117.345 263.072C117.134 262.474 117.345 262.389 117.345 262.346C117.545 262.19 117.79 262.106 118.043 262.106C118.295 262.106 118.541 262.19 118.741 262.346C120.137 263.413 121.152 261.364 122.505 261.834C124.621 261.354 126.678 260.638 128.638 259.699C132.529 257.907 136.547 256.583 140.353 254.663C144.16 252.742 147.205 249.455 151.054 247.449C152.154 246.894 151.857 244.888 150.546 244.333C149.954 244.076 149.616 243.351 148.897 243.479V242.924C148.897 242.582 148.897 242.497 148.601 242.54L148.009 242.07C148.432 240.576 147.205 241.643 146.867 241.302C146.275 239.765 144.456 239.082 144.16 237.332C144.258 235.636 143.731 233.963 142.68 232.637C142.68 232.637 142.299 232.381 142.68 231.996C144.752 229.862 142.68 227.728 142.68 225.337C142.885 225.067 143.003 224.739 143.018 224.398C143.018 223.246 142.722 221.325 143.314 221.026C146.74 219.105 146.021 214.922 148.178 212.489C149.616 210.867 149.193 208.221 151.35 206.727C151.773 206.428 151.773 205.873 151.9 205.361C152.311 201.953 152.933 198.574 153.761 195.244C155.706 190.079 156.637 184.573 158.878 179.493C159.174 178.853 158.625 177.914 159.132 177.145C159.167 177.065 159.185 176.977 159.185 176.889C159.185 176.801 159.167 176.714 159.132 176.633H158.582C158.582 178.213 156.679 178.511 156.002 179.621C155.326 180.731 153.126 179.92 154.184 181.969C154.018 182.098 153.832 182.199 153.634 182.268C151.35 182.695 151.392 185.17 150.293 186.536C149.193 187.902 148.643 187.262 147.755 186.536C147.755 187.731 147.459 188.884 147.247 189.908C146.591 192.521 145.106 194.845 143.018 196.525C142.172 197.378 141.664 195.842 141.664 196.269C141.664 198.446 137.435 198.958 139.465 201.903C139.531 201.993 139.574 202.099 139.59 202.21C139.606 202.32 139.594 202.434 139.557 202.539C139.519 202.645 139.456 202.739 139.374 202.814C139.292 202.889 139.192 202.943 139.084 202.97C138.408 203.226 138.535 202.586 138.365 202.245C138.196 201.903 138.365 201.519 137.562 201.647C137.816 203.696 136.293 205.19 135.828 206.983C135.363 208.775 133.628 209.8 133.967 211.678C133.967 212.66 133.332 213.428 133.332 213.983C133.332 215.392 131.81 215.05 131.556 216.203C131.056 219.579 130.957 223.004 131.26 226.405C131.26 227.386 131.725 227.472 132.444 227.258C131.916 228.614 131.755 230.088 131.979 231.527C132.379 233.401 132.046 235.359 131.049 236.991C129.956 238.182 129.222 239.662 128.934 241.259C128.934 243.394 129.695 245.528 127.961 247.491C127.961 247.491 127.961 248.174 127.961 248.516C126.65 249.839 124.408 250.522 124.874 252.998C125.139 254.029 125.508 255.03 125.973 255.986C126.269 256.711 127.792 257.096 127.073 257.949C126.354 258.803 125.677 257.309 124.958 257.01C124.476 256.852 123.98 256.738 123.478 256.669C121.448 256.413 120.855 258.462 119.248 259.145C119.031 259.535 118.726 259.869 118.36 260.12C117.993 260.372 117.573 260.535 117.134 260.596C115.653 260.937 115.442 263.029 113.75 262.73C113.75 262.73 113.454 262.73 113.454 263.029C113.2 264.181 112.777 265.462 111.508 265.377C110.02 265.213 108.64 264.516 107.617 263.413C104.107 259.785 99.1584 257.736 96.1978 253.723C96.0835 253.58 95.9318 253.472 95.7598 253.412C95.5879 253.352 95.4026 253.341 95.225 253.382C95.225 253.083 95.225 252.742 95.225 252.528C93.6387 249.529 91.5164 246.852 88.9654 244.631C88.9654 242.497 87.0198 240.96 86.6815 238.869V237.972C86.7712 237.825 86.8187 237.655 86.8187 237.482C86.8187 237.308 86.7712 237.138 86.6815 236.991C85.7163 235.393 85.11 233.6 84.9051 231.74C84.5245 229.649 84.3976 227.472 83.89 225.295C84.2707 225.295 84.4399 225.039 84.1438 224.655C83.8473 223.768 83.8473 222.809 84.1438 221.923C84.1438 221.197 84.1438 220.002 83.1287 219.703C82.1137 219.404 82.452 220.087 82.5789 220.685C82.7058 221.282 82.1137 221.112 81.9022 220.685C80.7603 219.575 79.6183 221.581 78.4341 220.685C78.1803 220.471 77.5882 221.325 77.7573 221.581C78.4763 222.734 77.0383 223.161 76.996 224.014C76.9537 224.868 76.5308 224.697 75.981 224.526C75.4311 224.356 75.6849 223.801 75.6849 223.374C75.6849 222.307 77.3344 221.667 76.4462 220.343C75.8118 221.453 74.3737 221.538 73.7816 222.606C72.8414 223.966 71.7328 225.2 70.4827 226.277C69.9751 226.831 68.7486 226.277 68.8755 226.917C69.3407 229.051 67.3952 229.393 66.5916 230.588C64.35 231.826 63.208 234.173 61.4316 235.924C61.0933 236.222 61.4316 236.735 61.6431 237.076C60.7126 237.631 61.0933 239.253 59.7821 239.424C58.471 239.594 60.2897 238.1 59.4438 237.716C59.2725 237.709 59.1022 237.745 58.9475 237.819C58.7928 237.894 58.6583 238.005 58.5556 238.143C58.1326 239.253 57.1176 239.509 56.2294 239.979V239.04L54.2838 241.217C54.0724 241.43 53.734 241.473 53.5225 241.686C52.2537 242.796 50.9003 243.863 52.1691 246.211C53.2688 243.948 55.4258 242.924 56.61 240.96C56.7561 240.666 57.0089 240.439 57.3161 240.328C57.6233 240.217 57.9612 240.229 58.2595 240.363C59.0631 240.662 58.2595 241.473 58.471 241.729C59.1477 243.095 57.752 243.436 57.4559 244.29L57.2445 244.802C57.0003 244.69 56.7451 244.604 56.4831 244.546C54.7335 246.927 52.5162 248.917 49.9698 250.394C49.8158 250.485 49.6819 250.608 49.5765 250.753C49.4711 250.899 49.3962 251.065 49.3566 251.241C49.317 251.417 49.3135 251.599 49.3462 251.776C49.3789 251.954 49.4472 252.122 49.5468 252.272C48.4895 252.998 48.5741 254.663 47.2206 255.089C45.8672 255.516 44.0485 254.278 45.6134 256.797C43.7102 256.498 44.683 258.76 43.2027 259.401C41.4005 259.83 39.6842 260.566 38.1273 261.578C37.7044 262.004 38.1273 262.346 38.1273 262.73C36.4355 262.261 35.6319 263.285 35.209 264.651C35.209 265.249 34.8706 265.761 34.2785 265.377C33.6864 264.992 33.1365 264.95 33.8133 263.968C34.49 262.986 33.8133 262.175 32.2906 261.535C32.9074 262.37 33.2006 263.403 33.1149 264.441C33.0292 265.479 32.5706 266.449 31.8254 267.169C30.5566 268.45 29.7107 270.328 28.315 271.096C25.6927 272.505 23.7471 274.853 21.0403 276.133C19.8509 276.849 18.7321 277.678 17.699 278.609C16.3941 279.564 15.2876 280.767 14.4423 282.152C14.1463 282.152 14.0194 282.152 14.0194 282.536C13.2581 283.262 12.3276 283.006 11.3971 282.963C11.0784 282.608 10.795 282.222 10.5512 281.811C10.5512 281.469 10.5512 280.829 10.2129 280.701C9.87453 280.573 9.36699 281.085 9.11322 281.554L8.69028 282.494C7.92898 282.792 7.04079 282.067 6.36407 283.134C5.68736 284.201 5.26441 282.835 5.09523 282.536C4.92605 282.237 4.03786 281.128 3.36115 281.085C0.0198822 281.085 -2.09485 278.182 -5.09777 277.158C-5.77448 276.902 -5.90136 276.176 -6.53578 275.92C-7.06183 274.541 -7.44453 273.11 -7.67773 271.651C-7.9315 269.133 -10.4692 266.785 -8.35445 264.011C-8.31241 263.917 -8.29066 263.815 -8.29066 263.712C-8.29066 263.609 -8.31241 263.507 -8.35445 263.413C-10.0462 260.895 -11.7803 258.462 -13.2183 255.815C-13.2183 255.388 -14.0219 255.516 -14.4026 255.815C-13.2229 257.511 -12.3495 259.404 -11.8226 261.407C-11.442 262.389 -10.3423 262.815 -10.3846 263.968C-10.2943 265.792 -9.87878 267.585 -9.15805 269.261C-8.90428 270.115 -8.22756 271.096 -8.52362 271.865C-9.27096 273.867 -9.4468 276.041 -9.03116 278.14C-9.03116 278.951 -8.22756 279.719 -8.6928 280.615C-9.58099 282.622 -8.69281 283.817 -7.00102 284.628C-6.49349 284.841 -6.28201 285.012 -6.62037 285.524C-6.95872 286.036 -7.1279 285.524 -7.42397 285.524C-7.54207 285.382 -7.69149 285.269 -7.86035 285.195C-8.02922 285.121 -8.21288 285.087 -8.39674 285.097C-10.4692 285.61 -11.9072 283.902 -13.7259 283.646H-15.037C-15.5022 283.646 -15.5868 284.03 -15.6714 284.372C-15.756 284.713 -15.3331 284.841 -15.037 284.969C-14.7409 285.097 -13.1337 284.329 -13.5144 285.652C-13.895 286.976 -14.6986 285.652 -15.2062 285.396C-16.7288 285.012 -16.6442 285.951 -16.6865 286.847C-16.7288 287.744 -16.6865 288 -17.617 288C-18.5474 288 -18.336 287.317 -18.2091 286.762C-17.9553 285.268 -19.0127 285.524 -19.6471 285.823C-20.2815 286.122 -21.6772 286.293 -22.354 285.097C-22.4371 284.983 -22.5451 284.888 -22.6697 284.822C-22.7942 284.755 -22.9321 284.718 -23.073 284.713C-25.9913 284.457 -27.9368 282.237 -30.3899 281.042C-31.1935 280.615 -31.7433 280.317 -31.2781 279.249C-30.8129 278.182 -31.6588 277.67 -32.5892 277.969C-32.8262 278.177 -33.1053 278.329 -33.4069 278.417C-33.7084 278.505 -34.0253 278.525 -34.3354 278.476C-34.6455 278.427 -34.9413 278.311 -35.2022 278.135C-35.4631 277.959 -35.6828 277.727 -35.8459 277.457C-39.5432 273.995 -42.9131 270.194 -45.912 266.102C-48.3651 262.73 -50.1415 258.974 -52.1716 255.474C-53.8211 251.205 -55.6398 246.936 -57.0778 242.326C-58.4863 238.142 -59.6028 233.863 -60.4191 229.521C-60.7997 227.386 -61.265 225.252 -61.7302 223.203C-62.1109 218.593 -62.28 213.898 -62.8299 209.16C-63.1553 204.433 -63.0136 199.686 -62.4069 194.988C-62.4069 193.366 -62.6607 191.787 -62.4069 190.207C-62.1532 188.628 -61.8994 186.494 -61.3073 185.213C-59.7001 181.969 -60.5037 178.469 -59.404 175.267C-58.0506 174.755 -58.3466 173.304 -58.0929 172.365C-57.543 170.486 -56.7394 168.779 -56.2319 166.901C-54.9364 162.817 -53.3096 158.848 -51.368 155.034C-50.0035 152.191 -48.3899 149.477 -46.5465 146.924C-46.0949 146.298 -45.4338 145.858 -44.6855 145.686C-44.0169 145.536 -43.3943 145.225 -42.8712 144.779C-42.3482 144.333 -41.9403 143.765 -41.6826 143.125L-40.8367 142.399C-39.3564 143.509 -39.1449 143.381 -38.5951 140.948C-36.8679 140.193 -35.0678 139.621 -33.2237 139.241C-31.6588 138.771 -30.0516 138.003 -28.6136 138.899C-27.904 139.297 -27.0961 139.48 -26.2861 139.427C-25.4762 139.374 -24.6984 139.087 -24.0457 138.6C-23.0619 137.976 -22.0293 137.433 -20.9582 136.978C-19.5202 136.509 -18.3783 135.057 -16.7288 135.527C-16.7288 135.527 -14.614 134.972 -15.5445 133.478L-15.8406 133.179C-15.5022 132.539 -14.4872 132.838 -14.318 132.027C-12.9646 134.161 -12.2878 132.027 -11.3997 131.557C-10.5115 131.088 -10.5115 131.173 -11.0613 130.703C-11.6111 130.234 -11.6534 130.703 -11.738 131.173C-11.8226 131.643 -12.8377 131.472 -12.7954 130.874C-12.7846 130.689 -12.7377 130.508 -12.6574 130.341C-12.5771 130.174 -12.465 130.025 -12.3275 129.902C-12.1899 129.779 -12.0297 129.685 -11.856 129.625C-11.6823 129.564 -11.4984 129.539 -11.3151 129.551C-10.6384 129.551 -9.87705 130.405 -9.28493 129.551C-8.14297 128.1 -6.32431 127.801 -5.05547 126.221C-2.67413 123.736 0.211395 121.799 3.40345 120.544C4.08747 120.152 4.75098 119.725 5.3913 119.264C6.19489 118.88 5.01064 118.709 5.3913 118.367C7.33685 118.026 8.09814 115.892 9.62075 115.422C10.738 115.14 11.7153 114.457 12.3699 113.501C12.962 112.69 15.3728 113.501 14.2732 111.324C13.7233 110.3 13.0043 109.403 12.4122 108.464C12.3023 108.262 12.2171 108.047 12.1584 107.824C10.6358 104.025 9.07092 100.183 7.50602 96.3842C5.15213 89.4234 3.34203 82.2874 2.09232 75.0414C1.45969 70.2721 1.12068 65.4679 1.07725 60.6563C1.24982 59.2388 1.24982 57.8053 1.07725 56.3877C1.66937 54.04 1.54249 51.5643 2.2615 49.1739C2.64215 47.8079 2.51527 46.2285 2.98051 44.9053C3.44575 43.582 3.48804 42.9844 1.88084 43.2832C3.19198 42.8991 3.14968 41.7466 3.48804 40.7221C4.24934 38.3317 5.09523 35.984 5.94112 33.6363C8.09251 28.1412 10.6809 22.8309 13.681 17.7572C15.1629 15.991 16.4138 14.0399 17.403 11.952L17.9951 11.6105C18.7141 11.6105 18.9679 11.3544 18.9679 10.7141C20.7442 8.40907 23.4934 7.00044 24.4661 4.01245C24.4661 3.71365 24.9737 3.32948 25.2275 3.37217L29.4569 1.15251L35.2513 0L41.1725 0.853713L45.8672 4.73811L46.6285 9.77501ZM33.5172 57.3268C33.0546 58.1255 32.8616 59.0543 32.9674 59.9733C33.4872 64.2528 34.4222 68.4705 35.7588 72.5656C35.7588 73.0778 35.7588 74.6145 36.9431 74.1876C38.1273 73.7608 39.7768 74.1876 40.242 72.1814C40.7073 70.1752 42.103 69.7057 43.3718 68.7239C44.8526 67.8351 46.1575 66.6773 47.2206 65.309C48.8278 64.9249 49.3354 63.2174 50.6465 62.4491C53.5885 60.5714 56.3124 58.3664 58.7671 55.8755C62.2775 52.6314 65.9571 49.6007 69.4676 46.3566C71.9075 44.4971 73.9502 42.1596 75.4734 39.4842C73.7218 39.7525 71.9568 39.9235 70.1866 39.9964C65.5829 39.5683 61.0168 38.7978 56.5254 37.6914C53.4195 37.1832 50.3526 36.4558 47.3475 35.5145C44.8944 34.6181 42.0607 34.7034 40.0306 32.6118C39.3538 31.9289 39.1001 32.6118 38.9732 33.3375C38.5178 35.5684 37.8667 37.7539 37.0276 39.8684C36.2586 41.6629 35.5949 43.5016 35.0398 45.3748C34.7437 46.57 35.3782 48.0213 33.6864 48.6616C33.0942 48.9177 33.3057 49.7288 33.6864 49.9422C34.8283 50.5398 33.6864 51.1374 33.6864 51.6496C33.6864 52.1618 32.6713 52.1618 33.3057 52.8448C33.079 54.3381 33.1509 55.8621 33.5172 57.3268ZM-20.7891 242.796C-20.0278 245.314 -17.913 248.302 -16.5596 251.717C-16.5596 251.717 -15.756 251.931 -15.3753 251.717C-14.9947 251.504 -14.9524 251.29 -15.0793 250.863C-15.2062 250.437 -15.4176 249.156 -15.5868 248.302C-16.1043 246.933 -16.216 245.441 -15.9081 244.008C-15.6002 242.576 -14.886 241.265 -13.8527 240.235C-13.2606 239.723 -12.6262 238.57 -13.1337 237.887C-13.6413 237.204 -13.3452 235.881 -12.7531 235.241C-12.161 234.6 -10.9344 232.637 -9.91935 231.399C-7.42348 228.147 -5.45354 224.516 -4.08269 220.642C-2.77156 217.27 -1.03749 214.068 0.358234 210.782C2.24246 206.604 3.90835 202.33 5.34901 197.976C5.34901 197.549 5.85654 196.952 5.34901 196.61C4.84147 196.269 4.5454 196.61 4.20705 197.037C1.71738 198.956 -1.17719 200.271 -4.25187 200.879C-7.49672 201.658 -10.678 202.685 -13.7682 203.952C-14.7789 204.248 -15.7462 204.679 -16.6442 205.233C-18.1596 206.764 -19.1648 208.733 -19.5202 210.867C-20.2392 213.727 -19.5202 216.672 -20.4084 219.404C-21.3621 223.441 -21.6479 227.609 -21.2543 231.74C-21.3812 235.07 -21.1697 238.442 -20.7891 242.796ZM209.59 175.865C209.97 174.542 208.194 175.865 207.982 174.968C207.982 174.584 207.559 175.353 207.306 175.523C207.052 175.694 207.306 177.786 206.079 175.95C206.079 175.651 205.741 175.95 205.656 176.164C205.572 176.377 204.556 177.956 204.768 178.554C205.276 180.005 205.995 178.042 206.798 178.554C207.14 178.674 207.513 178.674 207.855 178.554C208.423 178.403 208.915 178.044 209.236 177.547C209.556 177.05 209.682 176.45 209.59 175.865ZM76.7423 218.849C78.9839 218.593 77.5459 217.056 78.1803 216.331C78.8147 215.605 78.6032 215.733 78.1803 215.562C77.7573 215.392 77.715 215.904 77.5459 216.16C77.3767 216.416 77.7996 217.996 76.7423 218.849ZM42.1876 252.528C41.4686 253.339 39.5653 253.083 39.8614 255.175C40.665 254.236 42.0184 254.065 42.0184 252.528H42.1876ZM85.2012 156.357C86.2162 155.546 85.9202 154.735 86.0894 154.052C86.0894 154.052 85.6241 154.052 85.4972 154.052C84.4399 154.607 84.7782 155.333 85.2012 156.357ZM47.136 254.364C46.9686 254.202 46.7842 254.059 46.5862 253.937C46.2902 253.723 46.2479 253.937 46.2056 254.193C46.1633 254.449 46.2056 254.577 46.5439 254.577C46.8823 254.577 47.136 254.449 47.136 254.364Z" fill="#FCF8EE"/>
</g>
</svg>
